<svg width="48" height="48" viewBox="0 0 48 48" fill="accentBlue" xmlns="http://www.w3.org/2000/svg">
    <path fill-rule="evenodd" clip-rule="evenodd" d="M7.58 38.91H2L17.45 15.12C19.89 11.36 24.08 9.07999 28.57 9.07999H34.15L18.7 32.87C16.26 36.63 12.07 38.91 7.58 38.91ZM42.1102 16.99C44.2586 16.99 46.0002 15.2484 46.0002 13.1C46.0002 10.9516 44.2586 9.20999 42.1102 9.20999C39.9618 9.20999 38.2202 10.9516 38.2202 13.1C38.2202 15.2484 39.9618 16.99 42.1102 16.99ZM21.3301 34.65H26.9101C31.4001 34.65 35.5901 32.37 38.0301 28.61L42.7501 21.34H29.9701L21.3301 34.65Z" fill="black"/>
</svg>
