<svg width="112" height="32" viewBox="0 0 112 32" fill="none" xmlns="http://www.w3.org/2000/svg">
<g clip-path="url(#clip0_2260_16415)">
<path d="M74.9295 31.2693L78.8048 12.2205L80.2802 31.2693H88.6422L84.7669 1.03308H75.8237L71.65 19.1747L67.4769 1.03308H58.5337L54.6582 31.2693H63.0052L64.4958 12.2205L68.3712 31.2693H74.9295Z" fill="#585F66"/>
<path d="M100.864 1.03308H92.8154V31.2693H111.894V24.9197H100.864V1.03308Z" fill="#585F66"/>
<path d="M19.1842 1.03308H9.04854L0.105469 31.2693H9.04864L10.241 25.8269H17.9917L19.1842 31.2693H28.1273L19.1842 1.03308ZM14.1164 7.68503L16.7994 20.0818L11.4335 20.0819L14.1164 7.68503Z" fill="#585F66"/>
<path d="M49.591 9.49929C42.1841 2.9282 30.6258 5.59978 30.5124 11.6159C28.8318 0.45375 42.1397 -1.8766 49.5903 1.63786C49.723 3.43007 49.856 5.35967 49.591 9.49929Z" fill="#585F66"/>
<path d="M43.4455 13.0596C41.5794 12.3208 38.8643 11.6487 38.8605 9.49661C38.8589 8.61757 39.2154 7.66312 40.9459 7.08051C34.9838 7.6852 32.9955 15.0414 39.5897 18.6976C40.7389 19.3348 42.7345 20.0107 42.7345 22.1984C42.7345 24.7538 39.9666 25.6775 38.1458 25.6385C35.1211 25.5739 32.6893 24.5023 29.916 22.5007V29.7574C33.1979 31.1904 38.5436 32.8431 43.9024 31.1714C48.2334 29.8203 51.9757 26.1329 51.9757 22.1983C51.9759 15.7959 46.4976 14.268 43.4455 13.0596Z" fill="#585F66"/>
</g>
<defs>
<clipPath id="clip0_2260_16415">
<rect width="112" height="32" fill="white"/>
</clipPath>
</defs>
</svg>
