<svg width="120" height="21" viewBox="0 0 120 21" fill="none" xmlns="http://www.w3.org/2000/svg">
<g clip-path="url(#clip0_1673_1643)">
<path d="M113.377 7.27085e-07C114.19 -0.000393412 114.996 0.159458 115.747 0.470421C116.498 0.781383 117.181 1.23736 117.756 1.8123C118.331 2.38724 118.788 3.06987 119.099 3.82119C119.41 4.57251 119.57 5.37778 119.57 6.191V14.455C119.57 17.87 116.8 20.645 113.377 20.645H105.12C103.478 20.645 101.903 19.993 100.741 18.8323C99.5796 17.6716 98.9263 16.0972 98.925 14.455V7.01H103.647V14.376C103.647 14.7869 103.811 15.1809 104.101 15.4714C104.392 15.7618 104.786 15.925 105.197 15.925H113.3C114.159 15.925 114.85 15.231 114.85 14.376V6.272C114.85 5.416 114.159 4.722 113.3 4.722L106.03 4.72V7.27085e-07H113.377ZM80.263 7.27085e-07V14.176C80.263 15.029 80.569 15.924 81.86 15.924H89.452C92.059 15.924 94.189 17.952 94.241 20.473V20.645L81.781 20.641C78.251 20.641 75.393 17.871 75.393 14.451V7.27085e-07H80.263ZM63.997 7.27085e-07C67.675 7.27085e-07 70.681 2.825 70.681 6.272V12.319H53.72L53.726 14.425C53.751 15.258 54.476 15.922 55.37 15.922H70.47C69.73 18.629 67.107 20.645 63.996 20.645H55.366C51.696 20.645 48.69 17.825 48.69 14.374V6.272C48.691 2.825 51.697 7.27085e-07 55.366 7.27085e-07H63.997ZM45.55 7.27085e-07V4.728H37.764V20.645H32.908V4.728H25.13C25.4824 3.37548 26.2731 2.17787 27.3784 1.32243C28.4837 0.466982 29.8413 0.00193523 31.239 7.27085e-07H45.55ZM13.395 7.27085e-07V4.72L6.203 4.721C6.00059 4.72205 5.80038 4.76299 5.61381 4.84147C5.42724 4.91996 5.25797 5.03446 5.11568 5.17841C4.9734 5.32237 4.86088 5.49297 4.78458 5.68044C4.70828 5.86792 4.66968 6.0686 4.671 6.271V14.374C4.66995 14.5762 4.70874 14.7767 4.78516 14.9639C4.86158 15.1512 4.97413 15.3215 5.11639 15.4653C5.25865 15.609 5.42783 15.7234 5.61427 15.8017C5.80071 15.8801 6.00076 15.921 6.203 15.922H14.217C15.06 15.922 15.749 15.229 15.749 14.374V7.008H20.419V14.456C20.419 17.871 17.677 20.646 14.293 20.646H6.127C2.744 20.645 0 17.87 0 14.455V6.19C0 2.771 2.744 7.27085e-07 6.127 7.27085e-07H13.395ZM64.002 4.732H55.372C54.463 4.732 53.722 5.422 53.722 6.275V8.358H65.65V6.275C65.65 5.422 64.913 4.732 64.002 4.732ZM103.662 7.27085e-07V4.712H98.951C99.2442 3.57745 99.8359 2.54209 100.664 1.71348C101.493 0.884865 102.527 0.293221 103.662 7.27085e-07ZM15.752 7.27085e-07C16.8861 0.294185 17.9209 0.88615 18.7494 1.71461C19.5779 2.54307 20.1698 3.57791 20.464 4.712H15.75L15.752 7.27085e-07Z" fill="#585F66"/>
</g>
<defs>
<clipPath id="clip0_1673_1643">
<rect width="119.57" height="20.646" fill="white"/>
</clipPath>
</defs>
</svg>
