<svg width="131" height="57" viewBox="0 0 131 57" fill="none" xmlns="http://www.w3.org/2000/svg">
<g clip-path="url(#clip0_1673_1641)">
<path d="M74.705 14.1613C74.751 13.0443 74.658 11.8813 75.075 10.9043C75.354 9.83431 75.168 8.62432 74.844 7.60032C74.751 6.25032 74.334 5.08731 73.453 4.06331C72.664 2.94631 71.32 2.76031 70.299 1.96931C69.372 1.13231 68.074 1.03931 66.822 1.08531C66.033 1.08531 65.292 0.899315 64.549 0.759315C63.39 0.480315 62.184 0.759315 61.164 1.13231C60.33 1.27231 59.494 1.31831 58.753 1.69032C57.825 2.20232 56.713 2.48131 56.063 3.45831C55.553 4.06331 54.904 4.57531 54.765 5.36631C54.625 6.34331 54.811 7.32132 55.646 7.97232C55.878 8.25232 56.342 8.25232 56.434 8.62432C56.342 9.32232 55.971 9.92631 55.785 10.5313C55.368 11.2763 56.435 11.6483 56.063 12.4393L54.533 15.1393C54.348 15.5113 54.116 15.8833 54.116 16.3493C54.301 17.0933 55.182 16.8133 55.646 17.2793C55.971 17.6983 55.461 18.0233 55.461 18.3963C55.368 18.7213 55.878 18.8613 55.646 19.1863C55.368 19.6523 55.878 20.0243 56.017 20.4433C56.063 21.0483 55.692 21.6993 56.157 22.2113C57.315 23.0493 59.124 22.3973 60.33 23.0023C60.979 23.4683 60.84 24.3053 60.84 25.0033C60.515 27.9353 59.078 30.4483 57.269 32.7743C57.084 33.0543 56.899 33.4263 57.037 33.7523C57.315 33.8923 57.687 33.8453 57.965 33.7523C61.303 32.5883 63.9 29.7033 67.146 28.3543C68.398 27.7493 69.836 27.5163 71.181 27.2373C71.505 26.9573 71.32 26.4923 71.227 26.1673C70.577 24.3983 69.789 22.5843 69.928 20.5373C69.928 19.7923 70.763 19.6053 71.273 19.3273C72.154 19.0943 72.711 18.2093 73.082 17.4653C73.731 16.3023 74.566 15.3713 74.705 14.1613ZM20.496 48.6423C19.244 48.8753 18.966 48.8753 18.224 48.8753C16.694 48.8753 15.859 48.5033 15.071 47.4793C14.375 46.5953 13.958 45.3393 13.958 43.8963C13.958 40.9643 15.628 38.8243 17.899 38.8243H18.409L19.429 41.0573H20.867V38.4513C19.754 38.0793 18.873 37.8933 17.992 37.8933C14.236 37.8933 11.732 40.4993 11.732 44.4083C11.732 47.8513 13.726 50.2713 16.602 50.2713C17.482 50.2713 18.41 50.0853 19.476 49.7593L20.636 49.3873L20.867 49.2943L20.728 48.5033L20.496 48.6433V48.6423ZM33.016 41.7553C33.016 39.3353 31.765 37.8003 29.817 37.8003C29.029 37.8003 27.916 38.1723 26.2 39.0103L25.875 39.1503V30.8663L21.748 31.8893V32.4483L23.65 33.0993V48.6413L21.887 49.5253V50.1773H27.684V49.5253L25.922 48.6413V39.8003C26.432 39.6603 27.359 39.4743 28.055 39.4743C30.049 39.4743 30.837 40.3123 30.837 42.3593V48.6413L29.075 49.5253V50.1773H34.965V49.5253L33.109 48.6413V41.7563H33.017L33.016 41.7553ZM47.624 38.7313L49.339 39.5683L46.882 47.1073V47.0143C46.696 46.2693 46.65 46.2233 46.464 45.7573L44.146 38.1723H43.265L40.158 47.2923L40.065 46.9213L39.88 46.1293L39.694 45.4313L37.747 39.3363L39.416 38.7313V38.0793H33.99V38.7313L35.335 39.4293L39.091 50.3643H40.204L43.126 41.8943L45.769 50.3643H46.789L50.823 39.5223L52.168 38.6843V38.0333H47.531V38.7313H47.624ZM60.794 47.6193V40.9183C60.794 38.9173 59.68 37.9403 57.408 37.9403C56.342 37.9403 55.09 38.2193 53.374 38.8243V41.1043H54.765L55.739 39.0103C56.017 38.9633 56.109 38.9633 56.342 38.9633C58.104 38.9633 58.66 39.4753 58.66 41.0113V43.7103C57.037 43.8503 55.692 44.0823 54.765 44.3153C53.188 44.6873 52.307 45.6653 52.307 47.2003C52.307 48.9683 53.606 50.2703 55.507 50.2703C55.924 50.2703 56.342 50.2243 56.62 50.0853L57.686 49.6193L58.475 49.2013L58.753 49.0613C58.892 49.8993 59.309 50.2713 60.005 50.2713H60.098C60.422 50.2243 60.84 50.1783 61.072 50.0853L62.741 49.4803V48.9683L61.442 48.5963C60.84 48.3163 60.794 48.2233 60.794 47.6193ZM58.707 48.5493L58.521 48.5963C58.104 48.7363 57.871 48.7823 57.779 48.7823C57.501 48.8753 57.176 48.8753 56.899 48.8753C55.507 48.8753 54.672 48.0843 54.672 46.8743C54.672 45.8503 55.182 45.2453 56.295 44.9663C57.0992 44.74 57.9217 44.5844 58.753 44.5013V48.5493H58.707ZM67.749 39.2433L67.609 39.3363V37.7533L63.529 38.8233V39.4293L65.338 40.0343V48.6423L63.529 49.5263V50.1783H69.975V49.5263L67.61 48.6423V39.9873C68.166 39.7543 68.77 39.6153 69.28 39.6153H69.882L70.578 41.1043H72.154V38.3123C71.784 38.0793 71.412 37.9403 70.995 37.9403C70.345 37.9403 69.279 38.4053 67.749 39.2433ZM73.545 41.4763H74.334L75.494 39.1963H79.527L73.035 49.2943V50.1313H82.263V46.3623H81.521L80.223 48.9683H75.771L82.31 38.8703V38.0803H73.592V41.4763H73.545ZM90.1 42.8723L93.346 39.4753L95.618 38.6853V38.0793H90.24V38.6843L91.77 39.3363L87.643 43.6163L92.466 50.1313H95.944V49.4803L94.274 48.7353L90.1 42.8723ZM87.55 30.8673L83.33 31.8903V32.4493L85.324 33.1003V48.6423L83.423 49.5263V50.1783H89.451V49.5263L87.55 48.6423V30.8673ZM128.635 31.5653C125.435 31.5653 123.255 33.4723 123.255 36.3573V38.0793H121.401V39.1963H123.21V48.5963L121.401 49.4803V50.1313H127.893V49.4803L125.528 48.5963V39.1963H128.913V38.0793H125.528V35.9863C125.528 34.6363 125.76 33.7533 126.409 33.2413C126.919 32.8213 127.754 32.4963 128.496 32.4963L128.821 32.5433L129.47 34.0783H131V31.9383C130.397 31.6583 129.562 31.5653 128.635 31.5653ZM102.065 37.8473C98.772 37.8473 96.128 40.4993 96.128 44.4073C96.128 47.9913 98.633 50.5043 101.739 50.5043C105.032 50.5043 107.721 47.7583 107.721 43.9423C107.721 40.3123 105.218 37.8473 102.065 37.8473ZM102.065 49.3873C100.024 49.3873 98.818 47.3863 98.818 44.0353C98.818 40.8253 99.931 39.0103 101.832 39.0103C103.872 39.0103 105.078 41.0573 105.078 44.5473C105.032 47.5723 103.966 49.3873 102.065 49.3873ZM6.955 40.7783L4.452 38.9633C2.782 37.8003 1.994 37.2423 1.994 36.0323C1.994 34.2633 3.571 33.4263 5.936 33.4263C6.353 33.4263 6.538 33.4723 7.141 33.5193L7.327 33.5653L8.486 36.8233H9.367V33.0063L8.997 32.9133L8.022 32.6803C7.61399 32.5592 7.19433 32.4814 6.77 32.4483C6.17067 32.3656 5.56692 32.3189 4.962 32.3083C2.226 32.2163 0 34.1243 0 36.9163C0 37.8003 0.185 38.4053 0.603 39.1033C1.02 39.8943 1.716 40.3133 2.968 41.1973L5.565 42.9193C7.234 44.1293 7.93 44.8273 7.93 46.1763C7.93 48.0373 6.353 49.0613 4.08 49.0613C3.432 49.0613 2.921 49.0153 2.319 48.9213L1.159 45.6183H0.28V49.5733L0.511 49.6663L1.856 50.0383C2.876 50.3183 3.989 50.4583 4.777 50.4583C7.884 50.4583 10.296 48.5493 10.296 45.5713C10.296 44.5473 9.971 43.7103 9.507 42.9653C8.997 42.1283 8.487 41.8953 6.957 40.7783H6.955ZM115.836 37.9403C115.141 37.9403 113.75 38.4513 112.405 39.2433V37.7063L108.278 38.7303V39.2883L110.133 39.9403V55.2023L108.278 55.9943V56.6463H114.77V55.9483L112.498 55.1573V50.0383C112.961 50.1783 113.193 50.2243 113.796 50.2243C117.506 50.2243 120.566 47.3863 120.566 43.4773C120.566 40.3593 118.294 37.9403 115.836 37.9403ZM113.982 49.1083C113.518 49.1083 112.962 49.0613 112.452 49.0153V39.8463C113.008 39.6143 113.889 39.4743 114.631 39.4743C116.857 39.4743 118.341 41.3823 118.341 44.2213C118.387 47.2913 116.764 49.1073 113.981 49.1073L113.982 49.1083Z" fill="#585F66"/>
</g>
<defs>
<clipPath id="clip0_1673_1641">
<rect width="131" height="56.0003" fill="white" transform="translate(0 0.645996)"/>
</clipPath>
</defs>
</svg>
