<svg width="64" height="54" viewBox="0 0 64 54" fill="none" xmlns="http://www.w3.org/2000/svg">
<g clip-path="url(#clip0_1843_3153)">
<path fill-rule="evenodd" clip-rule="evenodd" d="M9.47058 33.3425C2.8221 11.5464 16.6198 2.60153 35.9226 1.52314C12.34 -5.65206 -7.59548 23.7941 2.84547 37.2588C12.8558 50.1674 21.1234 56.0039 33.0666 52.331C23.1181 52.1197 13.5986 46.8731 9.47058 33.3425Z" fill="#585F66"/>
<path fill-rule="evenodd" clip-rule="evenodd" d="M63.9471 28.9951C62.0943 9.60774 56.6977 0.642548 36.8908 1.47416C36.567 1.48937 36.2431 1.50459 35.9226 1.52318C39.9438 2.74524 44.0717 5.03387 48.1747 8.64936C66.2106 24.543 58.4737 38.7125 41.5846 48.4755C38.5249 50.2435 35.7056 51.518 33.0649 52.331C48.5486 52.6606 65.0721 40.7983 63.9454 28.9951" fill="#585F66"/>
<path fill-rule="evenodd" clip-rule="evenodd" d="M48.8141 31.304H50.742V22.8679H48.8141V31.304ZM50.9507 20.4001C50.9507 20.7652 50.8338 21.0559 50.6002 21.2706C50.3665 21.4853 50.0894 21.5917 49.7706 21.5917C49.4417 21.5917 49.1596 21.4853 48.9259 21.2706C48.6922 21.0559 48.5754 20.7635 48.5754 20.4001C48.5754 20.0232 48.6922 19.7274 48.9259 19.511C49.1596 19.2964 49.4417 19.1899 49.7706 19.1899C50.0877 19.1899 50.3648 19.2964 50.5985 19.511C50.8322 19.7274 50.949 20.0232 50.949 20.4001H50.9507ZM40.1091 23.1417C40.4814 23.0335 40.9638 22.9321 41.5597 22.8358C42.1539 22.7377 42.8116 22.6904 43.5344 22.6904C44.2137 22.6904 44.7829 22.7851 45.2386 22.9727C45.696 23.1603 46.0599 23.424 46.3303 23.762C46.6024 24.1001 46.7927 24.5108 46.9045 24.9892C47.0163 25.4675 47.0714 25.9915 47.0714 26.5611V31.304H45.1452V26.8688C45.1452 26.4175 45.1168 26.0321 45.0584 25.7143C44.9999 25.3982 44.9031 25.1396 44.7713 24.9402C44.6377 24.7407 44.4574 24.597 44.2288 24.5041C44.0017 24.4128 43.7213 24.3689 43.3942 24.3689C43.1488 24.3689 42.8934 24.3841 42.628 24.4162C42.3626 24.45 42.1656 24.4753 42.0387 24.4973V31.304H40.1108V23.1417H40.1091ZM32.7529 27.0615C32.7529 27.9235 32.9532 28.5979 33.3588 29.0864C33.7611 29.5766 34.3186 29.82 35.0314 29.82C35.3385 29.82 35.6023 29.8064 35.8193 29.7794C36.0363 29.7541 36.2149 29.7236 36.3534 29.6915V24.8523C36.1831 24.734 35.9578 24.6241 35.6757 24.521C35.3953 24.4196 35.0948 24.3689 34.7743 24.3689C34.0749 24.3689 33.5625 24.6089 33.2386 25.094C32.9148 25.5774 32.7529 26.2332 32.7529 27.0615ZM38.2813 31.0471C37.8974 31.1654 37.4184 31.2719 36.8391 31.3683C36.2599 31.4663 35.6523 31.5153 35.0147 31.5153C34.357 31.5153 33.7678 31.4122 33.2453 31.2077C32.7262 31.0049 32.2822 30.7107 31.9166 30.3287C31.5494 29.9467 31.269 29.4836 31.072 28.9427C30.875 28.3985 30.7766 27.7883 30.7766 27.1105C30.7766 26.4445 30.86 25.8377 31.0236 25.2951C31.1888 24.7525 31.4309 24.2877 31.7497 23.9006C32.0669 23.5119 32.4558 23.2144 32.9115 23.0048C33.3688 22.7952 33.8946 22.6904 34.4889 22.6904C34.8928 22.6904 35.2484 22.7377 35.5572 22.8358C35.8643 22.9321 36.1297 23.0386 36.3534 23.1569V19.1104L38.2813 18.7859V31.0471ZM29.3561 31.0471C28.9838 31.1435 28.5014 31.2432 27.9072 31.3446C27.3113 31.446 26.6586 31.4984 25.9475 31.4984C25.2782 31.4984 24.7173 31.4021 24.2666 31.2077C23.8159 31.015 23.4537 30.7462 23.1816 30.4014C22.9129 30.0566 22.7176 29.6459 22.6007 29.1675C22.4839 28.6892 22.4255 28.1652 22.4255 27.5956V22.8662H24.3534V27.2879C24.3534 28.1906 24.4836 28.8362 24.744 29.2233C25.0044 29.6121 25.4584 29.8048 26.1061 29.8048C26.3398 29.8048 26.5868 29.7946 26.8472 29.771C27.1076 29.7507 27.3012 29.7236 27.4281 29.6915V22.8679H29.3561V31.0471ZM19.1588 27.0615C19.1588 26.2332 18.9969 25.5774 18.6731 25.094C18.3492 24.6089 17.8368 24.3672 17.1357 24.3672C16.8169 24.3672 16.5181 24.4179 16.2343 24.5125C15.9539 24.6089 15.7286 24.717 15.5583 24.8354V29.6915C15.6969 29.7236 15.8755 29.7541 16.0925 29.7794C16.3095 29.8065 16.5732 29.82 16.8803 29.82C17.5914 29.82 18.1489 29.5766 18.5529 29.0864C18.9568 28.5962 19.1588 27.9235 19.1588 27.0615ZM21.1335 27.0953C21.1335 27.7714 21.035 28.3816 20.8397 28.9258C20.6427 29.4684 20.3606 29.9332 19.9951 30.3203C19.6279 30.7091 19.1855 31.0032 18.6647 31.2077C18.1439 31.4105 17.5547 31.5153 16.8954 31.5153C16.2594 31.5153 15.6518 31.4646 15.0726 31.37C14.4934 31.2719 14.0126 31.1654 13.6304 31.0471V19.107L15.5583 18.7859V23.1586C15.782 23.0403 16.0541 22.9321 16.3779 22.8358C16.7034 22.7377 17.0623 22.6904 17.4545 22.6904C18.0388 22.6904 18.5612 22.7952 19.0236 23.0048C19.486 23.2144 19.8699 23.5119 20.1787 23.9006C20.4858 24.2877 20.7229 24.7525 20.8881 25.2951C21.0517 25.8377 21.1335 26.4377 21.1335 27.0936" fill="#585F66"/>
</g>
<defs>
<clipPath id="clip0_1843_3153">
<rect width="64" height="53" fill="white" transform="translate(0 0.413208)"/>
</clipPath>
</defs>
</svg>
