<svg width="145" height="24" viewBox="0 0 145 24" fill="none" xmlns="http://www.w3.org/2000/svg">
<g clip-path="url(#clip0_1673_1640)">
<path d="M25.564 4.966V17.69C25.564 18.62 25.874 19.448 26.392 20.069C26.909 20.586 27.737 20.897 28.565 20.897C29.393 20.897 30.221 20.587 30.739 20.069C31.256 19.552 31.567 18.724 31.567 17.689V4.967H34.879V17.69C34.879 18.62 35.189 19.448 35.707 20.069C36.224 20.586 37.052 20.897 37.88 20.897C38.708 20.897 39.536 20.587 40.054 20.069C40.571 19.552 40.882 18.724 40.882 17.689V4.967H44.193V17.69C44.193 19.552 43.573 21.103 42.434 22.241C41.296 23.38 39.743 24 37.88 24C36.12 24 34.465 23.38 33.223 22.138C31.98 23.379 30.428 24 28.565 24C26.805 24 25.15 23.38 24.011 22.241C22.873 21.103 22.252 19.551 22.252 17.69V4.966H25.564ZM65.307 4.966V23.483H61.995V8.173H57.235C55.371 8.173 53.819 8.897 52.784 10.034C51.749 11.172 51.128 12.828 51.128 14.586C51.128 16.345 51.645 17.896 52.784 19.138C53.922 20.276 55.474 21 57.234 21C58.373 21 59.408 20.69 60.339 20.276V23.483C59.304 23.897 58.269 24 57.234 24C54.647 24 52.163 22.966 50.507 21.31C48.747 19.552 47.816 17.172 47.816 14.483C47.816 11.897 48.747 9.413 50.506 7.655C52.266 5.897 54.543 4.965 57.234 4.965L65.307 4.966ZM91.906 4.345C93.666 4.345 95.425 4.759 96.874 5.586C98.426 6.621 99.564 7.862 100.496 9.414L97.598 10.966C96.978 9.93 96.253 9 95.321 8.379C94.39 7.759 93.251 7.449 92.009 7.449C90.249 7.449 88.49 8.172 87.352 9.414C86.1453 10.7033 85.4785 12.4061 85.489 14.172C85.489 16.034 86.109 17.69 87.352 18.828C88.49 20.069 90.146 20.793 92.009 20.793C93.251 20.793 94.389 20.483 95.321 19.863C96.356 19.241 97.081 18.413 97.598 17.276L100.393 18.931C99.565 20.483 98.323 21.724 96.873 22.655C95.425 23.483 93.665 23.897 91.906 23.897C89.215 23.897 86.731 22.862 84.971 21.103C83.212 19.345 82.177 16.863 82.177 14.173C82.177 11.483 83.212 9 84.971 7.241C86.731 5.483 89.215 4.345 91.906 4.345ZM107.326 0.414V6.724C108.776 5.276 110.949 4.552 113.123 4.552C115.607 4.552 117.573 5.379 119.126 6.828C120.678 8.379 121.403 10.552 121.403 13.241V23.586H118.091V13.241C118.091 11.586 117.781 10.241 116.952 9.311C116.021 8.276 114.675 7.759 113.122 7.759C111.467 7.759 110.018 8.276 108.982 9.31C107.948 10.345 107.327 11.793 107.327 13.552V23.69H104.015V0.414H107.327H107.326ZM17.699 5.069V8.172H5.692C5.072 8.172 4.554 8.379 4.14 8.793C3.726 9.207 3.519 9.724 3.519 10.345C3.519 10.965 3.829 11.483 4.139 11.897C4.554 12.31 5.071 12.414 5.692 12.414H12.937C14.593 12.414 15.939 12.931 16.974 13.966C18.009 15 18.63 16.345 18.63 18C18.63 19.655 18.009 21 16.974 22.034C15.8731 23.0433 14.4305 23.5979 12.937 23.586H0.621V20.38H12.834C13.454 20.38 14.076 20.173 14.49 19.76C14.9547 19.2925 15.2156 18.6602 15.2156 18.001C15.2156 17.3418 14.9547 16.7095 14.49 16.242C14.076 15.829 13.455 15.622 12.834 15.622H5.589C4.17663 15.6317 2.81125 15.1152 1.759 14.173C0.724 13.242 0 11.897 0 10.345C0 8.793 0.621 7.448 1.656 6.517C2.7084 5.57521 4.07376 5.05901 5.486 5.069H17.699ZM73.899 0.414V5.069H79.798V8.172H73.898V18.103C73.898 18.621 74.002 19.138 74.312 19.552C74.726 20.069 75.244 20.276 75.865 20.276H79.798V23.379H75.865V23.483C74.312 23.483 72.967 22.863 72.035 21.931C71.104 21 70.586 19.655 70.586 18.207V0.414H73.899ZM145 4.966V23.483H126.474V4.966H145ZM137.962 6.828H133.512V12H128.337V16.448H133.512V21.621H137.962V16.448H143.137V12H137.962V6.828ZM121.3 0C122.439 0 123.37 0.931 123.37 2.069C123.368 2.61734 123.149 3.14267 122.762 3.53032C122.374 3.91796 121.848 4.13642 121.3 4.138C120.752 4.13642 120.226 3.91796 119.838 3.53032C119.451 3.14267 119.232 2.61734 119.23 2.069C119.23 0.931 120.162 0 121.3 0ZM121.3 0.414C120.369 0.414 119.644 1.138 119.644 2.069C119.644 3 120.369 3.724 121.3 3.724C122.232 3.724 122.956 3 122.956 2.069C122.956 1.138 122.232 0.414 121.3 0.414ZM121.61 0.931C122.025 0.931 122.232 1.138 122.232 1.551C122.232 1.966 122.025 2.172 121.611 2.172L122.231 3.103H121.818L121.197 2.173H120.887V3.103H120.472V0.931H121.61ZM121.61 1.241H120.886V1.862H121.611C121.818 1.862 121.921 1.759 121.921 1.552C121.921 1.345 121.818 1.242 121.611 1.242L121.61 1.241Z" fill="#585F66"/>
</g>
<defs>
<clipPath id="clip0_1673_1640">
<rect width="145" height="24" fill="white"/>
</clipPath>
</defs>
</svg>
