<svg width="155" height="25" viewBox="0 0 155 25" fill="none" xmlns="http://www.w3.org/2000/svg">
<g clip-path="url(#clip0_1673_1642)">
<path d="M125.84 16.4452V20.3322L124.098 24.4132H122.16L123.614 20.3322H121.967V16.4452H125.842H125.84ZM94.357 0.413208C97.747 0.413208 99.782 2.45321 100.46 5.17421L96.972 6.24321C96.391 4.39721 95.519 3.61921 94.259 3.61921C93 3.61921 92.225 4.39721 92.225 5.75721C92.225 8.67221 100.653 8.96421 100.653 15.0852C100.653 18.4852 98.328 20.7212 94.356 20.7212C91.353 20.7212 88.931 19.0692 87.963 15.1822L91.643 14.4052C92.031 16.7372 93.387 17.6112 94.55 17.6112C95.906 17.6112 96.875 16.7372 96.875 15.2792C96.875 11.4892 88.447 11.4892 88.447 5.95121C88.447 2.55121 90.481 0.413208 94.357 0.413208ZM61.128 0.413208C64.809 0.413208 67.328 2.16221 67.328 7.02021V14.0162C67.328 18.8752 64.809 20.6242 61.128 20.6242C57.447 20.6242 54.928 18.8742 54.928 14.0162V7.02021C54.928 2.16221 57.447 0.413208 61.128 0.413208ZM11.625 0.704208V14.5032C11.625 16.3492 12.4 17.3212 14.241 17.3212C16.081 17.3212 16.953 16.3492 16.953 14.5032V0.704208H45.92V8.86621H46.017L50.859 0.704208H54.929L49.89 8.67321L55.508 20.4302H51.246L47.371 12.1712L45.918 14.4062V20.4302H42.043V4.00921H37.974V20.4292H34.196V4.00921H28.383V20.4292H24.605V4.00921H20.536V14.5022C20.536 18.8752 18.018 20.6242 14.143 20.6242C10.268 20.6242 7.75 18.7772 7.75 14.5022V4.00821H3.778V20.4292H0V0.704208H11.625ZM148.509 0.413208C151.803 0.413208 154.516 2.16221 154.516 5.75721C154.516 7.50721 153.741 9.25521 152.191 10.0322C154.225 10.8102 155 12.4622 155 14.6962C155 18.5832 152.19 20.5262 148.51 20.5262C144.828 20.5262 142.019 18.5832 142.019 14.6962C142.019 12.5592 142.794 10.8102 144.829 10.0322C143.279 9.25521 142.503 7.50621 142.503 5.75721C142.503 2.06521 145.119 0.413208 148.509 0.413208ZM134.85 0.413208C138.24 0.413208 140.663 2.35621 140.856 5.85421H137.369C137.369 4.49421 136.303 3.52221 134.947 3.52221C132.913 3.52221 131.944 4.39721 131.944 7.60321V8.86621C132.913 8.08921 134.075 7.89521 135.625 7.89521C139.5 7.89521 141.244 10.3242 141.244 13.7252C141.244 17.7092 139.306 20.5262 134.85 20.5262C130.684 20.5262 128.36 17.9032 128.36 13.7252V7.21521C128.36 3.03621 130.684 0.413208 134.85 0.413208ZM70.816 0.704208L73.431 13.5302H73.528L76.144 0.704208H79.825L82.537 13.5302L85.153 0.704208H88.738L84.378 20.4292H80.794L77.984 6.92321L74.981 20.4292H71.397L67.328 0.704208H70.816ZM105.109 0.704208V8.86621L110.05 0.704208H114.119L109.08 8.67321L114.699 20.4302H110.533L106.561 12.1712L105.108 14.4062V20.4302H101.33V0.704208H105.109ZM119.35 0.704208V20.4292H115.572V0.704208H119.35ZM148.413 11.5872C146.572 11.5872 145.409 12.7532 145.409 14.5992C145.409 16.2512 146.184 17.4172 148.413 17.4172C150.641 17.4172 151.416 16.2512 151.416 14.5992C151.416 12.7532 150.253 11.5872 148.413 11.5872ZM134.85 10.6152C133.203 10.6152 131.944 11.7812 131.847 13.7252C131.847 16.5432 132.913 17.4172 134.85 17.4172C136.69 17.4172 137.66 16.0572 137.66 13.8222C137.66 11.5872 136.497 10.6152 134.85 10.6152ZM61.031 3.71721C59.578 3.71721 58.609 4.39721 58.609 6.53421V14.5992C58.609 16.8342 59.579 17.4172 61.031 17.4172C62.484 17.4172 63.453 16.7372 63.453 14.5992V6.53421C63.453 4.30021 62.484 3.71721 61.031 3.71721ZM125.744 8.28321V12.1702H121.869V8.28321H125.744ZM148.413 3.52321C146.959 3.52321 145.893 4.68821 145.893 6.04921C145.893 7.40921 147.056 8.47821 148.413 8.47821C149.866 8.47821 150.931 7.40921 150.931 6.04821C150.931 4.68821 149.866 3.52321 148.413 3.52321Z" fill="#585F66"/>
</g>
<defs>
<clipPath id="clip0_1673_1642">
<rect width="155" height="24" fill="white" transform="translate(0 0.413208)"/>
</clipPath>
</defs>
</svg>
