<svg width="120" height="23" viewBox="0 0 120 23" fill="none" xmlns="http://www.w3.org/2000/svg">
<g clip-path="url(#clip0_1673_1645)">
<path d="M48.452 0.413208C51.512 0.413208 54.198 1.22921 55.925 2.39421L53.788 6.03821C52.295 5.37121 50.28 4.90221 48.857 4.90221C44.859 4.90221 42.991 7.55221 42.991 11.3822C42.991 15.4802 45.154 18.0072 49.146 18.0072C49.879 18.0072 50.786 17.9792 51.512 17.8672V14.1332H48.886V9.80821H55.781C56.326 9.80821 56.637 10.2512 56.637 10.7722V21.7162C54.695 22.1482 51.664 22.4132 49.409 22.4132C41.497 22.4132 37.326 18.6502 37.326 11.3832C37.326 4.90321 41.497 0.413208 48.452 0.413208ZM90.266 0.413208C96.771 0.413208 100.451 5.30921 100.451 11.3832C100.45 17.5132 96.77 22.4132 90.266 22.4132C83.318 22.4132 79.643 17.5132 79.643 11.3832C79.643 5.30921 83.318 0.413208 90.266 0.413208ZM112.384 0.413208C115.772 0.413208 118.398 1.61021 119.738 2.89021L116.793 6.23821C115.335 5.37121 113.847 4.69321 112.178 4.69321C110.167 4.69321 109.03 5.45521 109.03 6.56321C109.03 7.66321 110.49 8.22321 112.325 8.77421C115.57 9.77421 120 10.7952 120 15.0402C120 19.4102 116.502 22.4132 110.897 22.4132C107.311 22.4132 103.979 21.1292 102.494 20.1102L104.912 15.8292C106.261 16.6432 108.885 17.8972 111.306 17.8972C112.676 17.8972 114.406 17.6322 114.406 16.1132C114.406 14.6872 112.473 14.2492 109.936 13.5272C106.874 12.6492 103.309 11.4332 103.309 7.32221C103.309 2.89021 107.252 0.413208 112.384 0.413208ZM7.267 0.821208L12.26 12.7822L17.483 0.821208H24.195V22.0042H18.765V9.77321L13.512 22.0032H10.595L5.429 9.77321V22.0032H0V0.821208H7.267ZM33.01 0.821208C33.42 0.821208 33.823 1.22921 33.823 1.66821V22.0042H28.37V0.821208H33.01ZM76.693 6.94421C76.693 9.30421 75.383 11.7222 72.93 12.2112C74.152 12.6262 75.383 14.1932 76.052 15.8912L78.477 22.0042H72.76L70.243 16.1742C69.728 14.9872 69.37 14.3962 68.278 14.3962H66.07V22.0042H60.738V1.66821C60.738 1.22921 61.222 0.821208 61.568 0.821208H69.098C73.187 0.821208 76.693 1.66821 76.693 6.94421ZM90.266 4.90221C87.404 4.90221 85.367 6.94421 85.367 11.3822C85.367 15.8892 87.403 17.9222 90.266 17.9222C92.719 17.9222 94.728 15.8892 94.728 11.3822C94.728 6.94421 92.719 4.90221 90.266 4.90221ZM68.739 4.90221H66.07V10.2152H68.739C70.334 10.2152 71.588 9.36521 71.588 7.35321C71.588 5.30921 70.334 4.90321 68.738 4.90321L68.739 4.90221Z" fill="#585F66"/>
</g>
<defs>
<clipPath id="clip0_1673_1645">
<rect width="120" height="22" fill="white" transform="translate(0 0.413208)"/>
</clipPath>
</defs>
</svg>
