<svg width="107" height="25" viewBox="0 0 107 25" fill="none" xmlns="http://www.w3.org/2000/svg">
<g clip-path="url(#clip0_1673_1644)">
<path fill-rule="evenodd" clip-rule="evenodd" d="M10.868 0.839058C17.265 0.820058 22.058 5.63206 21.755 12.6321C21.906 19.1611 17.491 24.4441 10.868 24.4061C4.34099 24.6331 -0.076009 19.4441 0.00099099 12.6321C-0.039009 5.72606 4.64099 0.839058 10.868 0.839058ZM32.284 0.651058C38.586 0.839058 41.134 4.36806 41.134 8.36806H35.981C35.981 8.36806 36.453 5.31106 32.189 5.17906C30.585 5.14106 28.868 5.78306 28.66 7.25506C28.132 11.1231 41.283 8.25506 41.378 17.0101C41.416 21.3501 37.397 24.2931 32.396 24.2181C22.471 24.0851 23.056 16.8401 23.019 16.2361H28.264C28.057 18.5381 30.415 19.8021 32.528 19.7651C34.094 19.7271 36.019 19.4631 36.264 17.4061C36.755 13.2931 23.414 16.2551 23.32 7.68906C23.283 3.14106 27.849 0.519058 32.283 0.651058H32.284ZM90.758 1.23506L95.966 10.3301L101.513 1.23506H106.948L106.967 23.3871H101.57V10.9911L96.042 20.1231L90.607 11.3491V23.3691H85.041V1.23406L90.758 1.23506ZM76.06 1.23506L84.116 23.3681H78.588L77.286 19.5001H68.569L67.229 23.3681H61.663L69.739 1.23506H76.06ZM54.983 1.25506C59.059 1.25506 62.229 4.74506 61.983 9.02806C61.813 12.2361 60.417 14.6131 57.473 15.9531L61.173 23.3681H55.493L52.191 16.2931H48.831V23.3681H43.661V1.25406H54.982L54.983 1.25506ZM10.868 5.49906C6.96199 5.44206 5.35799 9.17906 5.30199 12.6311C5.35799 16.0651 7.09399 19.5941 10.849 19.5941C14.661 19.5561 16.17 15.9141 16.397 12.6121C16.415 9.00806 14.774 5.44206 10.868 5.49906ZM72.946 6.76306V6.82006L70.116 14.8581H75.72L72.946 6.76306ZM54.021 5.93306H48.756V11.8761H54.172C55.7 11.8761 56.757 10.2161 56.682 8.85706C56.606 7.31006 55.568 5.93306 54.021 5.93306Z" fill="#585F66"/>
</g>
<defs>
<clipPath id="clip0_1673_1644">
<rect width="106.967" height="23.7669" fill="white" transform="translate(0 0.646301)"/>
</clipPath>
</defs>
</svg>
