<svg width="58" height="41" viewBox="0 0 58 41" fill="none" xmlns="http://www.w3.org/2000/svg">
<g clip-path="url(#clip0_1673_1748)">
<path fill-rule="evenodd" clip-rule="evenodd" d="M51.75 0.413208H5.75C2.5875 0.413208 0 2.98464 0 6.12749V34.6989C0 37.8418 2.5875 40.4132 5.75 40.4132H51.75C54.9125 40.4132 57.5 37.8418 57.5 34.6418V6.12749C57.5 2.98464 54.9125 0.413208 51.75 0.413208ZM53.3022 34.6418C53.3597 35.4989 52.6697 36.2418 51.7497 36.2989H5.74974C4.88724 36.2989 4.19724 35.556 4.19724 34.6989V6.12747C4.13974 5.27033 4.82974 4.52747 5.69224 4.47033H51.7497C52.6122 4.47033 53.3022 5.21318 53.3022 6.07033V34.6418ZM7.93501 33.4989H17.595C25.5875 33.4418 28.175 27.8418 28.175 20.2989C28.175 11.5561 24.4375 7.32748 17.595 7.32748H7.93501V33.4989ZM15.525 11.4418C21.2175 11.4418 21.7925 15.5561 21.7925 20.8132C21.7925 26.5846 19.8375 29.2703 16.5025 29.2703H14.26V11.4418H15.525ZM49.45 13.6703C49.3925 16.5275 47.5525 18.9846 44.85 19.7846C49.6225 20.8132 50.4275 24.2989 50.4275 26.0703C50.4275 33.4418 42.7225 33.4418 40.25 33.4418H30.935V7.27034H41.9175C49.335 7.27034 49.45 13.0989 49.45 13.6703ZM39.215 11.3846H37.26V17.6703H39.7325C41.9175 17.6703 43.1825 16.2418 43.1825 14.5275C43.1825 12.3561 42.0325 11.3846 39.215 11.3846ZM37.2025 29.2703H39.79C40.825 29.2703 44.045 29.2703 44.045 25.8989C44.045 24.4132 43.24 22.5275 39.9625 22.5275H37.2025V29.2703Z" fill="#585F66"/>
</g>
<defs>
<clipPath id="clip0_1673_1748">
<rect width="57.5" height="40" fill="white" transform="translate(0 0.413208)"/>
</clipPath>
</defs>
</svg>
