<svg width="224" height="40" viewBox="0 0 224 40" fill="none" xmlns="http://www.w3.org/2000/svg">
<g clip-path="url(#clip0_1673_1646)">
<path d="M21.3092 0C22.4169 0 23.5534 0.364159 24.9524 0.364159C25.3093 0.364159 25.5555 0.351883 25.7647 0.261864C25.6745 0.540101 25.2806 0.945168 24.9237 1.2766C25.1452 1.5835 25.7196 2.30772 25.7196 3.48611C25.7196 5.38056 24.4724 6.9395 24.4724 8.85028C24.4724 9.98783 25.3462 10.9902 25.6129 11.5876C25.777 11.5999 25.9329 11.604 26.097 11.604C29.0099 11.604 31.894 9.73008 31.894 7.32416C31.894 6.04353 31.3155 5.14745 30.6017 4.15318C30.1832 4.22274 29.8016 4.26365 29.5021 4.26365C28.181 4.26365 27.4672 3.55584 27.4179 2.86434C27.4179 2.24646 27.9226 1.77592 28.7103 1.77592C29.9371 1.77592 32.1648 2.91336 34.4131 2.91336C34.1915 3.08112 33.8223 3.25706 33.3792 3.42482C34.6961 4.60322 35.5782 6.19075 35.9147 7.88879L39.3568 13.3839C39.9394 14.3045 41.1579 16.1089 43 17.5165L42.6144 17.5163C40.5971 17.5118 39.1846 17.3907 37.4122 14.595L35.6478 11.7757C35.5165 12.1439 35.3565 12.4999 35.1677 12.8477L38.6755 18.4492C39.2622 19.378 40.4684 21.166 42.3228 22.5858L41.9372 22.5857C39.9199 22.5811 38.5074 22.4601 36.735 19.6643L33.7113 14.8402C33.4856 15.0817 33.2477 15.3149 32.9974 15.5399L37.2601 22.3484C37.8467 23.2772 39.0489 25.0612 40.9033 26.481C38.6755 26.481 37.2027 26.5341 35.3154 23.5595L31.1594 16.9229C30.8846 17.0947 30.6056 17.2625 30.3143 17.4221L35.3893 25.5195C35.976 26.4483 37.1781 28.2281 39.0325 29.648C36.8047 29.648 35.3278 29.7011 33.4447 26.7306L28.2219 18.3877C27.9101 18.5064 27.5983 18.6209 27.2783 18.7232L33.1821 28.1463C33.7604 29.0629 34.9913 30.8755 36.8252 32.2789L36.4396 32.2788C34.4222 32.2742 33.0097 32.1532 31.2373 29.3574L24.9438 19.3124C24.8823 19.3247 24.8166 19.3329 24.7551 19.3493C24.5828 19.8894 24.4638 20.3968 24.4638 20.9041C24.4638 24.0589 26.5398 26.8493 29.0342 28.9975C28.8742 29.067 28.5952 29.0916 28.3368 29.0916C27.824 29.0916 27.4917 29.0629 27.2578 29.022C27.8363 30.3313 29.0753 32.0253 29.703 32.8968C30.5194 32.7536 31.705 32.6349 32.4846 32.6349C33.2969 32.6349 33.3872 33.1136 33.3872 33.5351C33.3872 34.2716 33.0425 34.8567 32.6405 35.184C32.4928 34.8076 32.1892 34.3043 30.6835 34.3043C30.6548 34.3043 30.6055 34.3084 30.5317 34.3125C30.9748 34.8034 32.3492 35.9082 32.3492 36.8043C32.3492 37.3935 31.6969 38.2814 30.8394 38.2814C30.8927 38.0891 30.8845 37.9132 30.8845 37.7822C30.8845 37.058 30.2404 36.211 29.6989 35.6218C29.7153 35.7978 29.7071 35.7814 29.7071 35.986C29.7071 37.6963 29.5512 38.4819 28.4639 38.4819C27.9306 38.4819 27.5613 38.1873 27.4342 38.1014C28.1398 37.4508 28.1768 36.9435 28.1768 35.9819L28.1765 35.6795C28.1761 35.5235 28.1751 35.3551 28.1727 35.1513C28.1727 34.9345 28.1727 34.644 28.2096 34.4353C27.8198 34.378 27.6598 34.378 27.3603 34.378C27.3603 34.378 25.8136 34.2593 25.4444 35.0613C25.0259 34.6767 24.4146 34.1325 24.4146 33.5392C24.4146 33.1423 24.6034 32.6964 25.3993 32.6964C25.6987 32.6964 26.6465 32.8805 27.4424 32.8805C27.2291 32.4058 26.2814 31.0228 25.4567 30.0204C25.3336 30.4091 25.1408 30.8306 24.7059 31.1743C24.6485 30.5278 24.267 28.4861 23.2536 27.2913C23.1346 28.0974 22.9787 28.9239 22.9787 30.6711C22.9787 34.9182 24.0044 38.0565 26.1788 38.658C25.8958 39.149 25.2967 39.5868 24.6731 39.5868C23.9709 39.5868 23.5529 38.8891 23.1599 38.1459L23.0034 37.8478C22.7736 38.4698 22.1377 40 21.5018 40C20.8659 40 20.23 38.4697 20.0002 37.8478C19.5572 38.6907 19.1223 39.5868 18.3305 39.5868C17.7068 39.5868 17.1079 39.149 16.8248 38.658C18.9992 38.0565 20.0249 34.9182 20.0249 30.6711C20.0249 28.9239 19.8649 28.0974 19.7459 27.2913C18.7367 28.4861 18.3551 30.5278 18.2977 31.1743C17.8628 30.8305 17.67 30.4091 17.5469 30.0204C16.7223 31.0229 15.7746 32.4058 15.5612 32.8805C16.3571 32.8805 17.3048 32.6964 17.6043 32.6964C18.4003 32.6964 18.589 33.1423 18.589 33.5392C18.589 34.1325 17.9818 34.6767 17.5592 35.0613C17.1859 34.2593 15.6433 34.378 15.6433 34.378C15.3438 34.378 15.1838 34.378 14.794 34.4353C14.831 34.644 14.8351 34.9345 14.831 35.1513C14.8269 35.4909 14.8269 35.7323 14.8269 35.9819C14.8269 36.9435 14.8597 37.4508 15.5695 38.1014C15.4423 38.1873 15.073 38.4819 14.5397 38.4819C13.4525 38.4819 13.2966 37.6963 13.2966 35.986C13.2966 35.7814 13.2883 35.7978 13.3048 35.6218C12.7632 36.211 12.1191 37.058 12.1191 37.7822C12.1191 37.9132 12.1109 38.0891 12.1642 38.2814C11.3068 38.2814 10.6544 37.3935 10.6544 36.8043C10.6544 35.9082 12.033 34.8035 12.472 34.3125C12.3981 34.3084 12.3489 34.3043 12.3202 34.3043C10.8145 34.3043 10.5109 34.8076 10.3632 35.184C9.9611 34.8567 9.61647 34.2716 9.61647 33.5351C9.61647 33.1136 9.70673 32.6349 10.5191 32.6349C11.2986 32.6349 12.4842 32.7536 13.3006 32.8968C13.9283 32.0253 15.1673 30.3313 15.7458 29.022C15.512 29.0629 15.1797 29.0916 14.6669 29.0916C14.4084 29.0916 14.1294 29.067 13.9694 28.9975C16.4638 26.8493 18.5398 24.0588 18.5398 20.9041C18.5398 20.3967 18.4208 19.8894 18.2485 19.3493C18.187 19.3329 18.1213 19.3247 18.0598 19.3124L11.7663 29.3574C9.9939 32.1532 8.58137 32.2742 6.56403 32.2788L6.17845 32.2789C8.01236 30.8755 9.24321 29.0629 9.82169 28.1463L15.7254 18.7232C15.4054 18.621 15.0936 18.5064 14.7859 18.3877L9.55908 26.7306C7.67592 29.7011 6.19901 29.648 3.97124 29.648C5.82164 28.2281 7.0278 26.4483 7.61448 25.5195L12.6895 17.4221C12.3982 17.2625 12.1192 17.0947 11.8443 16.9229L7.68832 23.5595C5.80516 26.5342 4.32415 26.481 2.09639 26.481C3.95088 25.0612 5.15704 23.2772 5.74372 22.3484L10.0064 15.5399C9.75615 15.3149 9.51818 15.0817 9.29254 14.8402L6.26888 19.6643C4.49649 22.4602 3.08396 22.5812 1.06661 22.5857L0.681038 22.5858C2.53143 21.1661 3.74168 19.378 4.32836 18.4492L7.83611 12.8477C7.64738 12.4999 7.48738 12.1439 7.35609 11.7757L5.59193 14.5948C3.81955 17.3907 2.40339 17.5116 0.38562 17.5162L0 17.5163C1.8463 16.1088 3.06885 14.3044 3.64732 13.3838L7.08943 7.88865C7.42594 6.19061 8.30797 4.60307 9.62083 3.42467C9.18184 3.25691 8.8126 3.08098 8.59106 2.91322C10.8393 2.91322 13.0671 1.77577 14.2938 1.77577C15.0815 1.77577 15.5903 2.24636 15.5903 2.8642C15.5369 3.55565 14.823 4.2635 13.502 4.2635C13.2025 4.2635 12.8209 4.22258 12.4024 4.15302C11.6885 5.14728 11.1101 6.04328 11.1101 7.32401C11.1101 9.72983 13.9943 11.6038 16.9071 11.6038C17.0712 11.6038 17.2271 11.5997 17.3912 11.5875C17.9696 9.63992 19.1964 8.35919 20.1769 7.11124C18.9994 6.68576 17.6907 5.56871 17.6907 5.06544C17.6907 5.02451 17.7112 4.99997 17.7522 5.01634C19.0322 5.49915 19.3153 5.58507 20.3246 5.78557C20.3902 5.79786 20.4353 5.79378 20.4928 5.7774C20.7676 5.69148 21.0138 5.23321 21.0138 5.1923C20.7718 5.15138 19.3236 5.00409 18.3594 4.65221C17.625 4.38624 17.2517 3.89934 17.2517 3.71522C17.2517 3.68656 17.2886 3.67839 17.305 3.67839C17.4896 3.67839 18.384 4.14893 19.6927 4.14893C20.1809 4.14893 20.2712 4.12848 20.7553 4.07119C20.4189 3.2651 19.7789 2.58588 19.065 2.58588C18.7778 2.58588 18.146 2.76592 17.6208 3.02779C17.2557 2.45912 16.9316 1.7144 16.9316 1.30524C16.9316 0.822419 17.4116 0.257767 18.7614 0.257767C19.1347 0.257767 19.4876 0.290504 19.8158 0.351875C20.0784 0.40098 20.2999 0.458264 20.5337 0.552368C20.5173 0.519635 20.505 0.450086 20.505 0.380524C20.505 0.1964 20.6773 0 21.3092 0ZM60 2V39H54V2H60ZM157.546 23.0667V38.7376H155.92V37.623H155.879C155.833 37.7091 155.751 37.8279 155.636 37.9836C155.516 38.1352 155.356 38.2869 155.15 38.4426C154.948 38.5942 154.689 38.7253 154.38 38.836C154.076 38.9466 153.714 38.9999 153.306 38.9999C152.808 38.9999 152.335 38.9016 151.886 38.7049C151.441 38.5082 151.046 38.1926 150.709 37.7623C150.375 37.3321 150.108 36.7788 149.91 36.0986C149.708 35.4225 149.609 34.5988 149.609 33.6357C149.61 32.5739 149.75 31.6805 150.03 30.9675C150.309 30.2544 150.668 29.6766 151.108 29.2382C151.544 28.7997 152.042 28.4924 152.602 28.3079C153.158 28.1235 153.714 28.0334 154.273 28.0334C154.611 28.0334 154.903 28.0621 155.15 28.1113C155.401 28.1604 155.607 28.226 155.768 28.2957V23.2634L157.546 23.0667ZM131.498 28.23V34.9915C131.498 35.8685 131.642 36.4914 131.926 36.8643C132.214 37.2372 132.654 37.4216 133.255 37.4216C133.77 37.4216 134.202 37.2946 134.552 37.0405C134.906 36.7824 135.182 36.5324 135.388 36.2865V28.23H137.17V38.737H135.544V37.5527H135.499C135.453 37.6429 135.359 37.7699 135.215 37.938C135.066 38.106 134.877 38.2658 134.651 38.4174C134.424 38.5731 134.149 38.7084 133.827 38.8231C133.506 38.9419 133.148 38.9993 132.749 38.9993C132.28 38.9993 131.86 38.9296 131.485 38.7903C131.115 38.651 130.794 38.4297 130.53 38.1224C130.267 37.815 130.065 37.4175 129.925 36.9299C129.789 36.4422 129.715 35.8398 129.715 35.1227V28.23H131.498ZM186.323 25.3003V28.2303H188.85L188.632 29.6768H186.323V35.4958C186.323 36.2417 186.417 36.7498 186.607 37.0202C186.8 37.2866 187.121 37.4218 187.574 37.4218C187.838 37.4218 188.068 37.385 188.257 37.3153C188.447 37.2415 188.587 37.176 188.673 37.1186L188.916 38.5406C188.842 38.598 188.669 38.6881 188.389 38.8152C188.109 38.9381 187.735 38.9996 187.269 38.9996C186.36 38.9996 185.676 38.7455 185.224 38.2456C184.771 37.7415 184.54 36.9056 184.54 35.7377V29.6769H183.268V28.4967L184.54 28.2303L184.738 25.3003H186.323ZM124.726 27.9677C125.138 27.9677 125.488 28.0087 125.78 28.0907C126.076 28.1685 126.328 28.271 126.542 28.398C126.752 28.521 126.929 28.6439 127.069 28.7668C127.208 28.8939 127.32 28.9963 127.41 29.0865L126.64 30.3526C126.521 30.2215 126.311 30.0453 126.002 29.8199C125.694 29.5904 125.29 29.4798 124.792 29.4798C124.323 29.4798 123.965 29.5904 123.714 29.8076C123.467 30.0248 123.343 30.2871 123.343 30.5944C123.343 30.9878 123.454 31.3116 123.681 31.5697C123.911 31.8238 124.257 32.0984 124.726 32.3893L125.385 32.7827C126.105 33.2089 126.669 33.6638 127.081 34.1514C127.488 34.6391 127.694 35.2702 127.694 36.0447C127.694 36.8766 127.406 37.5773 126.826 38.1469C126.249 38.7165 125.418 38.9993 124.331 38.9993C123.907 38.9993 123.533 38.9542 123.212 38.8681C122.886 38.778 122.606 38.6796 122.364 38.5608C122.121 38.4419 121.919 38.3149 121.758 38.1797C121.598 38.0404 121.466 37.9133 121.363 37.7945L122.22 36.393C122.31 36.4832 122.417 36.5856 122.541 36.7004C122.664 36.8192 122.816 36.9299 122.989 37.0405C123.166 37.1511 123.364 37.2413 123.582 37.3151C123.804 37.3847 124.06 37.4216 124.352 37.4216C124.883 37.4216 125.286 37.3069 125.562 37.0733C125.842 36.8397 125.982 36.5529 125.982 36.2168C125.982 35.9709 125.949 35.7579 125.883 35.5734C125.817 35.3931 125.718 35.2292 125.587 35.0817C125.451 34.9342 125.29 34.7989 125.101 34.6637C124.912 34.5326 124.689 34.3891 124.442 34.2293L123.784 33.8113C123.121 33.3893 122.606 32.9426 122.232 32.4755C121.857 32.0083 121.672 31.4141 121.672 30.6847C121.672 30.2872 121.746 29.9266 121.903 29.5987C122.055 29.2709 122.273 28.9881 122.553 28.7463C122.829 28.5046 123.154 28.3161 123.528 28.1767C123.903 28.0374 124.302 27.9677 124.726 27.9677ZM116.485 27.9676C117.494 27.9676 118.288 28.2872 118.856 28.9224C119.428 29.5535 119.717 30.5083 119.717 31.7787C119.717 32.2295 119.7 32.6188 119.671 32.9466C119.643 33.2745 119.614 33.5654 119.585 33.8113H114.197C114.254 35.053 114.522 35.9627 114.999 36.5487C115.477 37.1307 116.16 37.4216 117.057 37.4216C117.362 37.4216 117.642 37.3847 117.889 37.3151C118.14 37.2413 118.354 37.1552 118.539 37.0528C118.725 36.9503 118.877 36.8479 119 36.7454C119.124 36.643 119.219 36.561 119.276 36.5037L119.935 37.7535C119.861 37.8232 119.75 37.9297 119.605 38.0691C119.457 38.2084 119.26 38.3436 119.013 38.4829C118.762 38.6223 118.453 38.7452 118.087 38.8477C117.72 38.946 117.288 38.9993 116.79 38.9993C116.131 38.9993 115.534 38.8886 114.999 38.6715C114.464 38.4502 114.011 38.1141 113.637 37.6511C113.262 37.1921 112.974 36.6102 112.768 35.9012C112.562 35.1964 112.459 34.344 112.459 33.3523C112.459 32.418 112.566 31.6106 112.781 30.9345C112.99 30.2543 113.283 29.6969 113.649 29.2584C114.015 28.82 114.439 28.4962 114.921 28.2872C115.407 28.0741 115.925 27.9676 116.485 27.9676ZM174.011 27.9683C175.023 27.9683 175.814 28.2879 176.386 28.9231C176.958 29.5542 177.242 30.509 177.242 31.7794C177.242 32.2302 177.23 32.6195 177.201 32.9474C177.172 33.2752 177.139 33.5661 177.111 33.812H171.726C171.784 35.0537 172.052 35.9634 172.529 36.5495C173.007 37.1314 173.69 37.4223 174.583 37.4223C174.892 37.4223 175.168 37.3854 175.419 37.3158C175.666 37.242 175.884 37.1559 176.069 37.0535C176.25 36.951 176.403 36.8486 176.53 36.7462C176.654 36.6437 176.744 36.5618 176.802 36.5044L177.465 37.7542C177.39 37.8239 177.279 37.9304 177.135 38.0698C176.987 38.2091 176.789 38.3443 176.538 38.4837C176.291 38.623 175.983 38.7459 175.616 38.8484C175.25 38.9467 174.818 39 174.32 39C173.661 39 173.064 38.8894 172.529 38.6722C171.994 38.4509 171.537 38.1148 171.166 37.6518C170.792 37.1928 170.504 36.6109 170.298 35.9019C170.092 35.1971 169.989 34.3447 169.989 33.353C169.989 32.4187 170.096 31.6114 170.306 30.9352C170.52 30.255 170.808 29.6977 171.175 29.2591C171.541 28.8207 171.969 28.4969 172.451 28.2879C172.936 28.0749 173.455 27.9683 174.011 27.9683ZM106.767 23.3739C107.339 23.3739 107.825 23.4231 108.228 23.5255C108.631 23.628 108.977 23.7509 109.261 23.8984C109.549 24.0459 109.78 24.1894 109.957 24.3369C110.13 24.4803 110.278 24.6074 110.393 24.7098L109.492 26.0416C109.422 25.9719 109.311 25.8736 109.162 25.7466C109.018 25.6236 108.829 25.5048 108.603 25.3859C108.376 25.2712 108.105 25.1687 107.792 25.0786C107.475 24.9925 107.104 24.9475 106.68 24.9475C106.108 24.9475 105.561 25.0499 105.042 25.2548C104.519 25.4597 104.062 25.8039 103.667 26.2834C103.272 26.7669 102.955 27.398 102.712 28.1766C102.469 28.9552 102.35 29.9224 102.35 31.0779C102.35 32.213 102.436 33.1801 102.613 33.9751C102.79 34.7701 103.054 35.4217 103.404 35.9258C103.758 36.4257 104.186 36.7904 104.7 37.0199C105.215 37.2453 105.816 37.356 106.503 37.356C106.886 37.356 107.244 37.3232 107.582 37.2494C107.919 37.1757 108.22 37.0855 108.483 36.9872V32.586H106.063V31.078H110.327L110.327 37.7288C110.225 37.8148 110.072 37.9296 109.866 38.0689C109.661 38.2082 109.393 38.3435 109.064 38.4828C108.734 38.6221 108.343 38.7451 107.891 38.8475C107.434 38.9459 106.915 38.9991 106.326 38.9991C105.462 38.9991 104.659 38.8639 103.918 38.5934C103.181 38.323 102.543 37.8845 102.008 37.2698C101.473 36.6592 101.053 35.8437 100.753 34.8316C100.452 33.8153 100.304 32.5654 100.304 31.0779C100.304 29.66 100.489 28.4635 100.864 27.4881C101.239 26.5087 101.728 25.7137 102.338 25.1032C102.947 24.4885 103.634 24.0459 104.404 23.7796C105.174 23.5091 105.96 23.3739 106.767 23.3739ZM81.6855 28.2301V34.9916C81.6855 35.8686 81.8254 36.4915 82.1136 36.8644C82.3976 37.2373 82.8421 37.4217 83.4431 37.4217C83.9577 37.4217 84.3899 37.2947 84.7398 37.0406C85.0938 36.7825 85.3696 36.5325 85.5754 36.2866V28.2301H87.3578V38.7371H85.7277V37.5529H85.6865C85.6412 37.643 85.5465 37.77 85.3983 37.9381C85.2543 38.1061 85.0649 38.2659 84.8385 38.4175C84.6121 38.5732 84.3363 38.7085 84.0153 38.8232C83.6942 38.9421 83.332 38.9994 82.9368 38.9994C82.4675 38.9994 82.0477 38.9298 81.6731 38.7904C81.2985 38.6511 80.9816 38.4298 80.7181 38.1225C80.4547 37.8151 80.253 37.4176 80.113 36.93C79.9731 36.4424 79.9031 35.8399 79.9031 35.1228V28.2301H81.6855ZM144.357 27.9678C144.826 27.9678 145.25 28.0375 145.633 28.1768C146.012 28.3161 146.337 28.5374 146.601 28.8448C146.864 29.1521 147.07 29.5496 147.214 30.0372C147.362 30.5249 147.436 31.1273 147.436 31.8404V38.7372L145.654 38.7375V31.9718C145.654 31.0826 145.506 30.4474 145.205 30.0581C144.905 29.6729 144.444 29.4803 143.83 29.4803C143.303 29.4803 142.863 29.6114 142.509 29.8737C142.159 30.136 141.879 30.39 141.677 30.64V38.7375H139.895V28.2301H141.521V29.4144H141.566C141.612 29.3242 141.706 29.1972 141.85 29.0292C141.999 28.8612 142.188 28.7014 142.423 28.5497C142.657 28.3981 142.937 28.2588 143.258 28.144C143.583 28.0293 143.946 27.9678 144.357 27.9678ZM162.053 23.0673V29.3043H162.098C162.156 29.2183 162.247 29.0994 162.374 28.956C162.498 28.8085 162.67 28.6651 162.889 28.5175C163.107 28.37 163.378 28.243 163.691 28.1323C164.008 28.0258 164.375 27.9684 164.803 27.9684C165.725 27.9684 166.458 28.2676 167.001 28.8659C167.54 29.4642 167.812 30.4558 167.812 31.8409V38.7378H166.034V31.972C166.034 31.0828 165.881 30.4476 165.581 30.0583C165.28 29.6731 164.823 29.4805 164.206 29.4805C163.679 29.4805 163.238 29.6116 162.889 29.8739C162.539 30.1362 162.259 30.3902 162.053 30.6402V38.7378H160.275V23.264L162.053 23.0673ZM181.4 28.2302V38.7377H179.617V28.2302H181.4ZM93.9728 28.0331C94.2239 28.0331 94.4256 28.0577 94.5779 28.0987C94.7302 28.1438 94.8537 28.1807 94.9402 28.2094L94.7219 29.7832C94.6766 29.7546 94.582 29.7218 94.4338 29.6767C94.2897 29.6316 94.0921 29.6111 93.841 29.6111C93.2853 29.6111 92.849 29.7587 92.532 30.0578C92.2192 30.357 91.9928 30.6848 91.8611 31.0331V38.7373H90.0828V28.2298H91.7088V29.6518H91.7541C91.8241 29.451 91.9229 29.2502 92.0381 29.0535C92.1534 28.8568 92.3016 28.6806 92.4786 28.529C92.6556 28.3733 92.8614 28.2544 93.1043 28.1643C93.3471 28.0782 93.6353 28.0331 93.9728 28.0331ZM77.1986 22.9352C77.5815 22.9352 77.9025 22.9885 78.166 23.0868C78.4294 23.1893 78.6064 23.2712 78.697 23.3286L78.3224 24.7956C78.2319 24.7382 78.1083 24.6727 77.9478 24.6112C77.7873 24.5415 77.5897 24.5129 77.355 24.5129C76.9311 24.5129 76.6059 24.644 76.3877 24.9063C76.1654 25.1685 76.0584 25.648 76.0584 26.3487V28.2297H78.4294L78.2113 29.6762H76.0584V38.7367H74.276V29.6762H73V28.496L74.276 28.2542V26.152C74.276 25.5824 74.3583 25.0948 74.5189 24.685C74.6794 24.2752 74.8935 23.9433 75.1569 23.681C75.4204 23.4188 75.725 23.2262 76.079 23.1114C76.4289 22.9926 76.8035 22.9352 77.1986 22.9352ZM16.7102 28.8545C16.4928 28.8545 16.382 28.8872 16.2589 28.9363C16.0756 29.4314 15.7192 30.0724 15.3221 30.7115L15.0801 31.0935C14.3457 32.2317 13.5659 33.2677 13.5142 33.3389L13.4937 33.3635L13.4609 33.3594C12.948 33.2776 11.627 33.0771 10.5192 33.0771L10.4218 33.0777C10.3233 33.0804 10.2222 33.0934 10.15 33.1589C10.0802 33.2326 10.0474 33.3594 10.0474 33.5354C10.0474 33.8095 10.1623 34.28 10.3018 34.4764C10.6875 34.0591 11.3152 33.8668 12.3203 33.8668C12.6239 33.8668 12.9809 33.9568 13.1737 34.01L13.3419 34.0509L12.7634 34.6278C11.8691 35.5197 11.0978 36.289 11.0978 36.8046C11.0978 37.1114 11.3973 37.5124 11.6763 37.6925C11.7336 36.7514 12.6855 35.4994 13.6086 34.7956L13.6865 34.7342L13.7029 35.0657C13.7193 35.2907 13.7358 35.6262 13.7358 35.9863C13.7358 37.7743 13.9163 38.0443 14.5399 38.0443C14.6343 38.0443 14.7819 38.0157 14.8722 37.983C14.5235 37.5533 14.384 36.9805 14.384 35.9821L14.3881 35.5238L14.3922 35.1515C14.3922 34.7423 14.3512 34.4396 14.3183 34.194L14.3019 34.059L14.3511 34.0508L14.3963 34.0427C14.6876 34.0018 15.2291 33.9322 15.6435 33.9322C16.5255 33.9322 17.1245 34.0099 17.5635 34.4191C17.8466 34.19 18.142 33.789 18.142 33.5394C18.142 33.163 17.9081 33.1343 17.6045 33.1343C17.4486 33.1343 17.3092 33.1589 17.1081 33.1834C16.7267 33.2366 16.1523 33.3225 14.9748 33.3225H14.9009L14.9256 33.2489C15.225 32.3978 16.0456 31.154 17.3625 29.5624C17.2436 29.1327 17.1246 28.8545 16.7102 28.8545ZM26.2938 28.8544C25.8753 28.8544 25.7604 29.1326 25.6414 29.5623C26.9584 31.1539 27.7789 32.3978 28.0784 33.2488L28.103 33.3225H28.0292C26.8518 33.3225 26.2774 33.2366 25.8958 33.1834C25.6948 33.1588 25.5512 33.1343 25.3994 33.1343C25.0958 33.1343 24.862 33.1629 24.862 33.5393C24.862 33.7889 25.1574 34.1899 25.4404 34.4191C25.8753 34.0099 26.4784 33.9321 27.3605 33.9321C27.7748 33.9321 28.3164 34.0017 28.6077 34.0426L28.702 34.059L28.6856 34.194C28.6528 34.4395 28.6118 34.7423 28.6118 35.1515L28.6159 35.5238L28.62 35.9821C28.62 36.9805 28.4805 37.5533 28.1318 37.9829C28.222 38.0157 28.3697 38.0443 28.4641 38.0443C29.0836 38.0443 29.2682 37.7743 29.2682 35.9863C29.2682 35.6262 29.2846 35.2907 29.301 35.0656L29.3133 34.7342L29.3954 34.7956C30.3185 35.4993 31.2704 36.7514 31.3319 37.6924C31.6068 37.5124 31.9104 37.1114 31.9104 36.8045C31.9104 36.3534 31.3167 35.7081 30.5692 34.9563L30.2406 34.6278L29.6622 34.0509L29.7524 34.0263L29.8304 34.01C30.0232 33.9568 30.3801 33.8668 30.6837 33.8668C31.6889 33.8668 32.3166 34.0591 32.7023 34.4764C32.8418 34.28 32.9566 33.8095 32.9566 33.5353C32.9566 33.3594 32.9238 33.2325 32.8541 33.1589C32.7638 33.0771 32.6284 33.077 32.5094 33.077H32.4848C31.3771 33.077 30.056 33.2775 29.5432 33.3594L29.5104 33.3635L29.4899 33.3389C29.4036 33.2202 27.2949 30.4216 26.7492 28.9363C26.618 28.8872 26.5112 28.8544 26.2938 28.8544ZM154.405 29.546C153.993 29.546 153.611 29.6157 153.248 29.755C152.89 29.8902 152.581 30.1197 152.314 30.4435C152.05 30.7631 151.845 31.177 151.688 31.6892C151.536 32.2015 151.458 32.8284 151.458 33.5702C151.458 34.3037 151.519 34.9102 151.643 35.3979C151.77 35.8896 151.943 36.283 152.162 36.5822C152.38 36.8813 152.631 37.0944 152.911 37.2255C153.187 37.3567 153.479 37.4222 153.787 37.4222C154.067 37.4222 154.314 37.3853 154.537 37.3157C154.755 37.2419 154.948 37.1518 155.109 37.0411C155.269 36.9305 155.405 36.8198 155.512 36.701C155.623 36.5862 155.71 36.4838 155.768 36.3936V29.9189C155.607 29.8165 155.418 29.7263 155.208 29.6525C154.994 29.5829 154.726 29.546 154.405 29.546ZM173.904 29.4149C173.274 29.4149 172.768 29.6772 172.385 30.2017C172.006 30.7263 171.784 31.4844 171.726 32.4761H175.571C175.587 32.4064 175.6 32.2999 175.604 32.1606C175.612 32.0212 175.616 31.8737 175.616 31.7098C175.616 30.9845 175.472 30.4189 175.176 30.0173C174.883 29.6157 174.459 29.4149 173.904 29.4149ZM116.374 29.4142C115.744 29.4142 115.238 29.6765 114.855 30.201C114.476 30.7255 114.254 31.4837 114.197 32.4754H118.045C118.058 32.4057 118.07 32.2992 118.078 32.1598C118.087 32.0205 118.087 31.873 118.087 31.7091C118.087 30.9837 117.943 30.4182 117.65 30.0166C117.354 29.615 116.93 29.4142 116.374 29.4142ZM85.312 24.0953C85.6042 24.0953 85.8553 24.1978 86.0612 24.4027C86.2629 24.6076 86.3658 24.878 86.3658 25.21C86.3658 25.546 86.2628 25.8164 86.0612 26.0213C85.8553 26.2262 85.6042 26.3287 85.312 26.3287C85.0197 26.3287 84.7686 26.2262 84.5628 26.0213C84.3611 25.8164 84.2582 25.546 84.2582 25.21C84.2582 24.878 84.3611 24.6076 84.5628 24.4027C84.7686 24.1978 85.0197 24.0953 85.312 24.0953ZM81.9243 24.0953C82.2206 24.0953 82.4676 24.1978 82.6734 24.4027C82.8792 24.6076 82.9822 24.878 82.9822 25.21C82.9822 25.546 82.8792 25.8164 82.6734 26.0213C82.4676 26.2262 82.2206 26.3287 81.9243 26.3287C81.632 26.3287 81.385 26.2262 81.1792 26.0213C80.9734 25.8164 80.8705 25.546 80.8705 25.21C80.8705 24.878 80.9734 24.6076 81.1792 24.4027C81.385 24.1978 81.632 24.0953 81.9243 24.0953ZM180.519 23.1775C180.869 23.1775 181.157 23.2922 181.375 23.5258C181.597 23.7594 181.704 24.0585 181.704 24.4232C181.704 24.8043 181.597 25.1076 181.375 25.3453C181.157 25.5747 180.869 25.6936 180.519 25.6936C180.152 25.6936 179.86 25.5747 179.638 25.3453C179.42 25.1076 179.309 24.8043 179.309 24.4232C179.309 24.0585 179.42 23.7594 179.638 23.5258C179.86 23.2922 180.152 23.1775 180.519 23.1775ZM127.121 5.90179C127.533 5.90179 127.883 5.94277 128.179 6.02473C128.472 6.1026 128.723 6.20505 128.937 6.32798C129.151 6.45092 129.324 6.57795 129.464 6.70089C129.604 6.82383 129.715 6.93037 129.805 7.01643L129.035 8.28658C128.916 8.15545 128.706 7.97515 128.397 7.74976C128.089 7.52436 127.685 7.40963 127.187 7.40963C126.718 7.40963 126.36 7.52027 126.113 7.74156C125.862 7.95875 125.738 8.22101 125.738 8.52836C125.738 8.92176 125.849 9.24549 126.08 9.49957C126.306 9.75773 126.652 10.0323 127.121 10.3232L127.784 10.7167C128.5 11.1387 129.064 11.5936 129.476 12.0854C129.883 12.573 130.089 13.2041 130.089 13.9786C130.089 14.8105 129.801 15.5112 129.221 16.0768C128.644 16.6464 127.813 16.9332 126.726 16.9332C126.302 16.9332 125.928 16.8881 125.607 16.8021C125.286 16.7119 125.001 16.6095 124.759 16.4947C124.52 16.3759 124.318 16.2489 124.154 16.1095C123.993 15.9702 123.861 15.8432 123.758 15.7284L124.619 14.327C124.705 14.4171 124.812 14.5155 124.936 14.6343C125.059 14.7491 125.211 14.8638 125.384 14.9745C125.561 15.081 125.759 15.1753 125.981 15.2449C126.199 15.3187 126.455 15.3556 126.747 15.3556C127.278 15.3556 127.681 15.2367 127.957 15.0072C128.237 14.7737 128.377 14.4868 128.377 14.1508C128.377 13.9049 128.344 13.6877 128.278 13.5074C128.212 13.323 128.113 13.1591 127.978 13.0156C127.846 12.8681 127.685 12.7288 127.496 12.5977C127.307 12.4665 127.084 12.3231 126.837 12.1592L126.179 11.7453C125.516 11.3232 125.001 10.8765 124.627 10.4094C124.256 9.94225 124.067 9.34398 124.067 8.61456C124.067 8.22116 124.145 7.86055 124.298 7.53277C124.45 7.20494 124.668 6.91807 124.948 6.6804C125.224 6.43862 125.549 6.25011 125.924 6.11079C126.298 5.97146 126.697 5.90179 127.121 5.90179ZM112.616 1V16.6668H110.986V15.5521H110.945C110.899 15.6423 110.821 15.7611 110.702 15.9127C110.586 16.0685 110.426 16.2201 110.22 16.3717C110.014 16.5274 109.755 16.6586 109.45 16.7651C109.142 16.8758 108.783 16.9331 108.372 16.9331C107.874 16.9331 107.4 16.8348 106.952 16.634C106.507 16.4373 106.116 16.1258 105.778 15.6955C105.441 15.2653 105.173 14.708 104.976 14.0318C104.778 13.3516 104.679 12.532 104.679 11.5689C104.68 10.5031 104.819 9.61382 105.095 8.90077C105.375 8.18364 105.733 7.60989 106.174 7.17149C106.614 6.73301 107.112 6.42158 107.668 6.24126C108.224 6.05686 108.784 5.9667 109.339 5.9667C109.677 5.9667 109.969 5.99129 110.22 6.04456C110.467 6.09373 110.673 6.15521 110.833 6.22897V1.1967L112.616 1ZM118.88 5.90153C119.889 5.90153 120.683 6.21707 121.251 6.85225C121.824 7.48743 122.112 8.44221 122.112 9.70854C122.112 10.1634 122.095 10.5527 122.067 10.8806C122.038 11.2084 122.009 11.4953 121.98 11.7452H116.592C116.649 12.9869 116.917 13.8967 117.395 14.4786C117.872 15.0646 118.555 15.3555 119.449 15.3555C119.757 15.3555 120.037 15.3186 120.284 15.2449C120.535 15.1752 120.753 15.0851 120.935 14.9826C121.116 14.8802 121.272 14.7777 121.396 14.6794C121.519 14.5769 121.614 14.495 121.671 14.4376L122.33 15.6834C122.256 15.7571 122.149 15.8637 122.001 16.003C121.853 16.1382 121.655 16.2776 121.408 16.4169C121.157 16.5562 120.852 16.6751 120.486 16.7775C120.115 16.88 119.683 16.9332 119.185 16.9332C118.526 16.9332 117.93 16.8226 117.395 16.6054C116.859 16.3841 116.407 16.044 116.032 15.585C115.657 15.126 115.369 14.5441 115.163 13.8352C114.958 13.1262 114.855 12.2779 114.855 11.2863C114.855 10.3519 114.962 9.54459 115.176 8.86847C115.39 8.18821 115.678 7.63088 116.044 7.19238C116.411 6.7539 116.835 6.43017 117.32 6.21707C117.802 6.00808 118.321 5.90153 118.88 5.90153ZM169.549 5.90099C169.96 5.90099 170.31 5.94197 170.603 6.02393C170.899 6.1018 171.15 6.20425 171.364 6.32718C171.574 6.45012 171.751 6.57715 171.891 6.70009C172.031 6.82303 172.142 6.92958 172.233 7.01563L171.463 8.28579C171.343 8.15466 171.134 7.97435 170.825 7.74895C170.516 7.52356 170.113 7.40883 169.615 7.40883C169.145 7.40883 168.787 7.51947 168.54 7.74076C168.289 7.95795 168.166 8.22022 168.166 8.52757C168.166 8.92096 168.277 9.2447 168.503 9.49877C168.734 9.75694 169.08 10.0315 169.549 10.3225L170.207 10.7159C170.928 11.1379 171.492 11.5928 171.903 12.0846C172.311 12.5722 172.517 13.2033 172.517 13.9778C172.517 14.8097 172.229 15.5104 171.648 16.076C171.072 16.6456 170.24 16.9324 169.154 16.9324C168.73 16.9324 168.355 16.8873 168.034 16.8013C167.709 16.7111 167.429 16.6087 167.186 16.4939C166.943 16.3751 166.741 16.2481 166.581 16.1087C166.42 15.9694 166.289 15.8424 166.186 15.7276L167.042 14.3262C167.132 14.4163 167.235 14.5147 167.363 14.6335C167.487 14.7483 167.639 14.863 167.812 14.9737C167.989 15.0802 168.186 15.1745 168.404 15.2441C168.627 15.3179 168.882 15.3548 169.174 15.3548C169.705 15.3548 170.109 15.2359 170.384 15.0064C170.664 14.7729 170.804 14.486 170.804 14.15C170.804 13.9041 170.771 13.6869 170.701 13.5066C170.64 13.3222 170.541 13.1583 170.409 13.0148C170.277 12.8673 170.113 12.728 169.923 12.5969C169.734 12.4657 169.512 12.3223 169.265 12.1584L168.606 11.7445C167.943 11.3224 167.429 10.8757 167.054 10.4086C166.68 9.94146 166.494 9.34319 166.494 8.61377C166.494 8.22037 166.573 7.85975 166.725 7.53197C166.877 7.20413 167.095 6.91728 167.375 6.6796C167.651 6.43783 167.976 6.24932 168.351 6.10999C168.726 5.97067 169.125 5.90099 169.549 5.90099ZM176.802 3.23332V6.16337H179.333L179.111 7.60983H176.802V13.4289C176.802 14.1747 176.9 14.6828 177.09 14.9492C177.279 15.2197 177.604 15.3549 178.057 15.3549C178.321 15.3549 178.547 15.318 178.736 15.2443C178.93 15.1746 179.07 15.1049 179.156 15.0476L179.399 16.4737C179.325 16.531 179.148 16.6212 178.868 16.7441C178.592 16.8711 178.218 16.9326 177.748 16.9326C176.839 16.9326 176.16 16.6785 175.703 16.1745C175.25 15.6705 175.023 14.8386 175.023 13.6707V7.60992H173.747V6.42564L175.023 6.16337L175.221 3.23332H176.802ZM86.5634 6.16341V12.925C86.5634 13.8019 86.7075 14.4248 86.9957 14.7978C87.2797 15.1707 87.7201 15.3551 88.3252 15.3551C88.8356 15.3551 89.2679 15.228 89.6219 14.974C89.9718 14.7158 90.2517 14.4658 90.4575 14.2158V6.16341H92.2358V16.6664H90.6098V15.4862H90.5645C90.5233 15.5722 90.4245 15.7034 90.2805 15.8714C90.1323 16.0394 89.947 16.1992 89.7206 16.3508C89.4942 16.5025 89.2184 16.6418 88.8932 16.7565C88.5722 16.8713 88.214 16.9327 87.8189 16.9327C87.3496 16.9327 86.9257 16.8631 86.5552 16.7237C86.1806 16.5844 85.8595 16.3631 85.5961 16.0558C85.3327 15.7484 85.131 15.3509 84.991 14.8633C84.8552 14.3757 84.7852 13.7732 84.7852 13.0561V6.16341H86.5634ZM184.52 5.90104C185.532 5.90104 186.323 6.21658 186.895 6.85175C187.467 7.48693 187.751 8.44172 187.751 9.70805C187.751 10.1629 187.735 10.5522 187.706 10.8801C187.677 11.2079 187.648 11.4948 187.619 11.7447H182.235C182.293 12.9864 182.56 13.8962 183.034 14.4781C183.511 15.0641 184.199 15.355 185.092 15.355C185.401 15.355 185.676 15.3182 185.928 15.2444C186.175 15.1747 186.393 15.0846 186.574 14.9821C186.759 14.8797 186.911 14.7772 187.035 14.6789C187.162 14.5764 187.253 14.4945 187.311 14.4371L187.969 15.6829C187.899 15.7566 187.788 15.8632 187.64 16.0025C187.496 16.1377 187.298 16.2771 187.047 16.4164C186.8 16.5557 186.492 16.6746 186.125 16.777C185.759 16.8795 185.327 16.9327 184.828 16.9327C184.17 16.9327 183.569 16.8221 183.034 16.6049C182.503 16.3836 182.046 16.0435 181.671 15.5845C181.301 15.1256 181.008 14.5436 180.803 13.8347C180.601 13.1257 180.498 12.2774 180.498 11.2858C180.498 10.3514 180.605 9.5441 180.815 8.86797C181.029 8.18772 181.317 7.63039 181.684 7.19188C182.05 6.7534 182.474 6.42967 182.96 6.21658C183.441 6.00758 183.964 5.90104 184.52 5.90104ZM202.743 6.16279V12.9243C202.743 13.8013 202.887 14.4242 203.171 14.7971C203.459 15.17 203.9 15.3544 204.501 15.3544C205.015 15.3544 205.447 15.2274 205.801 14.9733C206.151 14.7152 206.427 14.4652 206.633 14.2152V6.16279H208.415V16.6658H206.789V15.4856H206.744C206.699 15.5716 206.604 15.7027 206.46 15.8708C206.312 16.0388 206.127 16.1986 205.896 16.3502C205.67 16.5018 205.398 16.6412 205.073 16.7559C204.752 16.8707 204.394 16.9321 203.998 16.9321C203.529 16.9321 203.105 16.8625 202.735 16.7231C202.36 16.5838 202.039 16.3625 201.776 16.0552C201.512 15.7478 201.311 15.3503 201.171 14.8627C201.031 14.375 200.965 13.7726 200.965 13.0555V6.16279H202.743ZM141.829 5.90144C143.97 5.90144 145.04 7.14311 145.04 9.62237V16.6666H143.258V9.90509C143.258 9.04453 143.105 8.4257 142.797 8.04468C142.488 7.66766 142.035 7.47917 141.434 7.47917C140.936 7.47917 140.52 7.598 140.191 7.83978C139.862 8.08156 139.602 8.31105 139.413 8.52824C139.442 8.68805 139.462 8.86017 139.479 9.04458C139.491 9.22489 139.499 9.41749 139.499 9.62238V16.6666L137.717 16.667V9.90545C137.717 9.04489 137.593 8.42606 137.346 8.04504C137.095 7.66802 136.692 7.47952 136.136 7.47952C135.844 7.47952 135.585 7.51641 135.354 7.58607C135.128 7.65983 134.926 7.74999 134.753 7.86063C134.576 7.97128 134.42 8.09011 134.288 8.22124C134.156 8.35238 134.049 8.47122 133.959 8.57367V16.667H132.18V6.16376H133.806V7.34805H133.848C133.922 7.22921 134.033 7.08578 134.181 6.91776C134.325 6.74974 134.51 6.58993 134.729 6.43831C134.947 6.28669 135.206 6.15555 135.498 6.0531C135.791 5.95475 136.12 5.90144 136.486 5.90144C137.688 5.90144 138.54 6.36864 139.038 7.30293C139.141 7.15541 139.281 6.99968 139.454 6.83167C139.631 6.66365 139.837 6.51202 140.072 6.3727C140.306 6.23337 140.57 6.11862 140.862 6.03257C141.154 5.94651 141.479 5.90144 141.829 5.90144ZM220.793 5.90049C222.93 5.90049 224 7.14216 224 9.62142V16.6657H222.222V9.90415C222.222 9.04359 222.065 8.42475 221.757 8.04373C221.452 7.66672 220.995 7.47823 220.394 7.47823C219.896 7.47823 219.484 7.59707 219.155 7.83884C218.826 8.08062 218.562 8.3101 218.373 8.52729C218.402 8.68711 218.426 8.85923 218.439 9.04363C218.455 9.22395 218.459 9.41654 218.459 9.62144V16.6657L216.681 16.6661V9.9045C216.681 9.04394 216.557 8.42511 216.306 8.04409C216.055 7.66708 215.656 7.47858 215.096 7.47858C214.804 7.47858 214.545 7.51547 214.318 7.58513C214.092 7.65889 213.89 7.74904 213.713 7.85969C213.536 7.97033 213.384 8.08917 213.252 8.22031C213.12 8.35144 213.009 8.47027 212.923 8.57272V16.6661H211.14V6.16281H212.766V7.3471H212.812C212.886 7.22826 212.997 7.08484 213.141 6.91682C213.289 6.7488 213.47 6.58898 213.693 6.43736C213.911 6.28574 214.166 6.15461 214.462 6.05215C214.755 5.9538 215.084 5.90049 215.45 5.90049C216.652 5.90049 217.5 6.36769 217.998 7.30198C218.101 7.15446 218.241 6.99874 218.418 6.83072C218.591 6.6627 218.797 6.51108 219.032 6.37176C219.266 6.23243 219.53 6.11768 219.826 6.03162C220.118 5.94557 220.439 5.90049 220.793 5.90049ZM99.423 5.90113C99.8923 5.90113 100.32 5.9708 100.699 6.11013C101.082 6.24946 101.403 6.47075 101.666 6.77809C101.93 7.08133 102.136 7.47884 102.284 7.97057C102.428 8.45821 102.502 9.06065 102.502 9.7737V16.6664L100.724 16.6667V9.90512C100.724 9.01587 100.571 8.38073 100.271 7.99142C99.9704 7.60621 99.5135 7.40951 98.896 7.40951C98.3691 7.40951 97.9287 7.54065 97.5788 7.80701C97.2248 8.06928 96.949 8.32335 96.7432 8.57333V16.6667H94.9608V6.16341H96.5868V7.3477H96.6321C96.6774 7.25755 96.7721 7.13051 96.9203 6.96249C97.0643 6.79448 97.2578 6.63466 97.4924 6.48304C97.7229 6.32732 98.0029 6.19209 98.3239 6.07735C98.6491 5.95851 99.0155 5.90113 99.423 5.90113ZM149.477 6.1634V16.6666H147.699V6.1634H149.477ZM194.016 5.96636C194.267 5.96636 194.469 5.98685 194.621 6.03193C194.773 6.07701 194.897 6.1139 194.983 6.14258L194.761 7.71648C194.72 7.6878 194.625 7.65091 194.477 7.60993C194.333 7.56485 194.131 7.54027 193.884 7.54027C193.329 7.54027 192.892 7.69189 192.575 7.99104C192.262 8.29019 192.036 8.61392 191.904 8.96635V16.6663H190.126V6.16303H191.752V7.58504H191.797C191.867 7.38014 191.966 7.17934 192.081 6.98264C192.201 6.78594 192.345 6.61384 192.522 6.45811C192.699 6.30649 192.905 6.18355 193.148 6.0975C193.39 6.01144 193.679 5.96636 194.016 5.96636ZM164.185 6.16311V16.6664H162.403V6.16311H164.185ZM156.669 5.90111C157.138 5.90111 157.562 5.97078 157.945 6.11011C158.324 6.24943 158.645 6.47072 158.912 6.77807C159.176 7.08131 159.377 7.47881 159.525 7.97054C159.674 8.45819 159.744 9.06062 159.744 9.77367V16.6664L157.965 16.6666V9.90511C157.965 9.01585 157.813 8.3807 157.513 7.99139C157.212 7.60619 156.755 7.40949 156.142 7.40949C155.611 7.40949 155.174 7.54062 154.82 7.80699C154.471 8.06926 154.191 8.32333 153.985 8.5733V16.6666H152.207V6.16339H153.833V7.34768H153.874C153.919 7.25752 154.014 7.13049 154.162 6.96247C154.31 6.79445 154.499 6.63464 154.734 6.48302C154.969 6.32729 155.244 6.19207 155.57 6.07732C155.891 5.95849 156.257 5.90111 156.669 5.90111ZM77.0668 1.56978C77.9601 1.56978 78.7298 1.65994 79.3637 1.84024C80.0018 2.02465 80.5287 2.28282 80.9362 2.61884C81.3478 2.95487 81.6442 3.36057 81.8253 3.83178C82.0106 4.30713 82.1011 4.83576 82.1011 5.42174C82.1011 5.94627 82.0353 6.40573 81.9036 6.79913C81.7719 7.19253 81.5948 7.53265 81.3643 7.81541C81.1379 8.10226 80.8745 8.33174 80.574 8.50385C80.2735 8.68006 79.9607 8.8112 79.6396 8.90136V8.94234C80.0348 9.0161 80.4052 9.15543 80.751 9.36032C81.0968 9.56521 81.3932 9.81929 81.6525 10.1266C81.9077 10.434 82.1135 10.7946 82.2658 11.2084C82.4222 11.6264 82.5004 12.0813 82.5004 12.5771C82.5004 13.1754 82.3934 13.7204 82.1876 14.2163C81.9859 14.7122 81.6648 15.1424 81.2326 15.5113C80.8004 15.8719 80.257 16.1588 79.5943 16.3636C78.9357 16.5685 78.1536 16.6669 77.2438 16.6669H74.1442V1.56978H77.0668ZM198.301 6.16251V16.6658H196.523V6.16251H198.301ZM109.471 7.47923C109.059 7.47923 108.676 7.5489 108.318 7.68413C107.956 7.82345 107.647 8.05293 107.384 8.37257C107.12 8.69631 106.91 9.11019 106.754 9.62243C106.602 10.1347 106.523 10.7616 106.523 11.5034C106.523 12.2328 106.585 12.8434 106.713 13.3311C106.836 13.8187 107.009 14.2121 107.227 14.5113C107.45 14.8145 107.697 15.0276 107.977 15.1588C108.252 15.2899 108.549 15.3555 108.857 15.3555C109.133 15.3555 109.384 15.3186 109.602 15.2448C109.821 15.1751 110.014 15.0809 110.175 14.9743C110.335 14.8637 110.471 14.749 110.582 14.6342C110.693 14.5154 110.776 14.417 110.833 14.3269V7.84805C110.673 7.74559 110.488 7.65954 110.273 7.58578C110.059 7.51611 109.792 7.47923 109.471 7.47923ZM31.7093 3.92892C31.578 3.96166 31.4508 3.99031 31.3236 4.01894C31.8939 4.71456 32.9031 5.87651 32.9031 7.41911C32.9031 10.4551 29.6825 13.0901 26.0147 13.1392C26.0435 13.4543 26.0394 13.7284 26.0394 13.9616C26.0394 14.3994 26.0147 14.8208 25.9614 15.2341C30.1255 15.1605 33.7729 11.7808 33.7729 8.14329C33.7729 6.05245 32.2467 4.39537 31.7093 3.92892ZM11.2946 3.92787C10.7571 4.39431 9.23096 6.0514 9.23096 8.14224C9.23096 11.8084 12.9316 15.2085 17.1327 15.233C17.0876 14.8362 17.063 14.4147 17.063 13.9606C17.063 13.6783 17.0753 13.4041 17.0999 13.1422C13.3828 13.1422 10.1048 10.4827 10.1048 7.41807C10.1048 5.87547 11.1099 4.71347 11.6802 4.01789C11.553 3.98924 11.4258 3.96061 11.2946 3.92787ZM77.3549 9.79826H76.0583V15.0928H77.2438C78.3716 15.0928 79.1908 14.8715 79.6971 14.4248C80.1993 13.9823 80.4545 13.3225 80.4545 12.4456C80.4546 11.626 80.187 10.9826 79.6519 10.5072C79.1167 10.0318 78.3511 9.79826 77.3549 9.79826ZM118.769 7.34814C118.14 7.34814 117.633 7.61041 117.25 8.13494C116.872 8.65947 116.649 9.41763 116.592 10.4093H120.44C120.453 10.3356 120.465 10.2331 120.473 10.0938C120.482 9.95445 120.486 9.80283 120.486 9.64301C120.486 8.91358 120.338 8.34804 120.045 7.94646C119.749 7.54896 119.325 7.34814 118.769 7.34814ZM184.408 7.34765C183.779 7.34765 183.272 7.60991 182.894 8.13445C182.511 8.65898 182.293 9.41714 182.235 10.4088H186.08C186.096 10.3351 186.104 10.2326 186.113 10.0933C186.121 9.95396 186.125 9.80233 186.125 9.64251C186.125 8.91308 185.977 8.34754 185.685 7.94596C185.392 7.54846 184.968 7.34765 184.408 7.34765ZM77.0668 3.07776H76.0583V8.28616H77.0463C78.0712 8.28616 78.8492 8.04029 79.3761 7.54034C79.903 7.04859 80.1664 6.36014 80.1664 5.48322C80.1665 4.78656 79.9195 4.2088 79.4214 3.75802C78.9233 3.30315 78.1371 3.07776 77.0668 3.07776ZM18.7613 0.769768C17.8956 0.769768 17.4443 1.03982 17.4443 1.30578C17.4443 1.56352 17.6987 2.14044 17.8341 2.37775C18.1828 2.23046 18.7367 2.07497 19.0649 2.07497C19.7869 2.07497 20.3203 2.52915 20.6444 2.90968C21.0013 3.33107 21.2803 3.88756 21.4116 4.43175L21.411 4.43L21.4908 4.25475C21.6222 3.95395 21.7445 3.62512 21.7817 3.27423L21.7931 3.0611C21.7931 1.62493 20.6567 0.769768 18.7613 0.769768ZM148.601 1.10653C148.951 1.10653 149.239 1.22537 149.457 1.45895C149.679 1.69254 149.786 1.99168 149.786 2.3564C149.786 2.73341 149.679 3.04075 149.457 3.27433C149.239 3.50792 148.951 3.62675 148.601 3.62675C148.234 3.62675 147.942 3.50792 147.72 3.27433C147.502 3.04075 147.39 2.73341 147.39 2.3564C147.39 1.99168 147.502 1.69254 147.72 1.45895C147.942 1.22537 148.234 1.10653 148.601 1.10653ZM163.308 1.10624C163.658 1.10624 163.942 1.22508 164.165 1.45866C164.383 1.69225 164.494 1.99139 164.494 2.35611C164.494 2.73312 164.383 3.04046 164.165 3.27404C163.942 3.50763 163.658 3.62646 163.308 3.62646C162.942 3.62646 162.646 3.50763 162.427 3.27404C162.209 3.04046 162.098 2.73312 162.098 2.35611C162.098 1.99139 162.209 1.69225 162.427 1.45866C162.646 1.22508 162.942 1.10624 163.308 1.10624ZM197.424 1.10564C197.774 1.10564 198.062 1.22448 198.281 1.45806C198.499 1.69165 198.61 1.99079 198.61 2.35551C198.61 2.73252 198.499 3.03986 198.281 3.27345C198.062 3.50703 197.774 3.62586 197.424 3.62586C197.058 3.62586 196.766 3.50703 196.543 3.27345C196.325 3.03986 196.214 2.73252 196.214 2.35551C196.214 1.99079 196.325 1.69165 196.543 1.45806C196.766 1.22448 197.058 1.10564 197.424 1.10564ZM22.5685 1.04393C21.9695 0.753416 21.8177 1.1053 21.8054 1.47765C22.0434 1.79274 22.1952 2.16099 22.2649 2.56606C23.2988 2.76655 24.0045 1.4531 23.0239 1.21578C23.1593 1.64949 22.4947 1.95637 22.4947 1.95637C22.4947 1.95637 22.2444 1.37536 22.5685 1.04393Z" fill="#585F66"/>
</g>
<defs>
<clipPath id="clip0_1673_1646">
<rect width="224" height="40" fill="white"/>
</clipPath>
</defs>
</svg>
