<svg width="24" height="24" viewBox="0 0 24 24" fill="none" xmlns="http://www.w3.org/2000/svg">
<path fill-rule="evenodd" clip-rule="evenodd" d="M9.5 6.5C9.5 5.11929 10.6193 4 12 4C13.3807 4 14.5 5.11929 14.5 6.5C14.5 7.88071 13.3807 9 12 9C10.6193 9 9.5 7.88071 9.5 6.5ZM12 2C9.51472 2 7.5 4.01472 7.5 6.5C7.5 8.98528 9.51472 11 12 11C14.4853 11 16.5 8.98528 16.5 6.5C16.5 4.01472 14.4853 2 12 2ZM12 13C9.84712 13 7.71641 13.5348 6.11538 14.2019C5.31591 14.535 4.61141 14.9164 4.0875 15.3094C3.82723 15.5046 3.58121 15.7251 3.39089 15.9693C3.21352 16.197 3 16.5534 3 17V17.0031V17.0063V17.0094V17.0126V17.0157V17.0189V17.0221V17.0252V17.0284V17.0316V17.0348V17.038V17.0412V17.0444V17.0476V17.0509V17.0541V17.0573V17.0606V17.0638V17.0671V17.0704V17.0736V17.0769V17.0802V17.0835V17.0868V17.0901V17.0934V17.0967V17.1V17.1033V17.1067V17.11V17.1133V17.1167V17.12V17.1234V17.1268V17.1301V17.1335V17.1369V17.1403V17.1437V17.1471V17.1505V17.1539V17.1573V17.1607V17.1641V17.1676V17.171V17.1744V17.1779V17.1813V17.1848V17.1883V17.1917V17.1952V17.1987V17.2022V17.2057V17.2092V17.2127V17.2162V17.2197V17.2232V17.2267V17.2302V17.2338V17.2373V17.2409V17.2444V17.248V17.2515V17.2551V17.2586V17.2622V17.2658V17.2694V17.273V17.2766V17.2802V17.2838V17.2874V17.291V17.2946V17.2982V17.3018V17.3055V17.3091V17.3127V17.3164V17.32V17.3237V17.3273V17.331V17.3347V17.3383V17.342V17.3457V17.3494V17.3531V17.3568V17.3605V17.3642V17.3679V17.3716V17.3753V17.379V17.3828V17.3865V17.3902V17.394V17.3977V17.4014V17.4052V17.4089V17.4127V17.4165V17.4202V17.424V17.4278V17.4316V17.4353V17.4391V17.4429V17.4467V17.4505V17.4543V17.4581V17.4619V17.4657V17.4695V17.4734V17.4772V17.481V17.4849V17.4887V17.4925V17.4964V17.5002V17.5041V17.5079V17.5118V17.5156V17.5195V17.5234V17.5272V17.5311V17.535V17.5389V17.5428V17.5467V17.5506V17.5544V17.5583V17.5622V17.5662V17.5701V17.574V17.5779V17.5818V17.5857V17.5897V17.5936V17.5975V17.6014V17.6054V17.6093V17.6133V17.6172V17.6212V17.6251V17.6291V17.633V17.637V17.641V17.6449V17.6489V17.6529V17.6568V17.6608V17.6648V17.6688V17.6728V17.6768V17.6808V17.6848V17.6888V17.6928V17.6968V17.7008V17.7048V17.7088V17.7128V17.7168V17.7208V17.7249V17.7289V17.7329V17.7369V17.741V17.745V17.749V17.7531V17.7571V17.7612V17.7652V17.7692V17.7733V17.7773V17.7814V17.7855V17.7895V17.7936V17.7976V17.8017V17.8058V17.8098V17.8139V17.818V17.822V17.8261V17.8302V17.8343V17.8384V17.8424V17.8465V17.8506V17.8547V17.8588V17.8629V17.867V17.8711V17.8752V17.8793V17.8834V17.8875V17.8916V17.8957V17.8998V17.9039V17.908V17.9121V17.9163V17.9204V17.9245V17.9286V17.9327V17.9369V17.941V17.9451V17.9492V17.9534V17.9575V17.9616V17.9657V17.9699V17.974V17.9782V17.9823V17.9864V17.9906V17.9947V17.9988V18.003V18.0071V18.0113V18.0154V18.0196V18.0237V18.0279V18.032V18.0362V18.0403V18.0445V18.0486V18.0528V18.0569V18.0611V18.0652V18.0694V18.0735V18.0777V18.0819V18.086V18.0902V18.0943V18.0985V18.1027V18.1068V18.111V18.1152V18.1193V18.1235V18.1277V18.1318V18.136V18.1402V18.1443V18.1485V18.1527V18.1568V18.161V18.1652V18.1693V18.1735V18.1777V18.1818V18.186V18.1902V18.1943V18.1985V18.2027V18.2069V18.211V18.2152V18.2194V18.2235V18.2277V18.2319V18.2361V18.2402V18.2444V18.2486V18.2527V18.2569V18.2611V18.2652V18.2694V18.2736V18.2778V18.2819V18.2861V18.2903V18.2944V18.2986V18.3028V18.3069V18.3111V18.3153V18.3194V18.3236V18.3278V18.3319V18.3361V18.3402V18.3444V18.3486V18.3527V18.3569V18.361V18.3652V18.3694V18.3735V18.3777V18.3818V18.386V18.3901V18.3943V18.3985V18.4026V18.4068V18.4109V18.4151V18.4192V18.4234V18.4275V18.4316V18.4358V18.4399V18.4441V18.4482V18.4524V18.4565V18.4606V18.4648V18.4689V18.473V18.4772V18.4813V18.4854V18.4896V18.4937V18.4978V18.5019V18.5061V18.5102V18.5143V18.5184V18.5226V18.5267V18.5308V18.5349V18.539V18.5431V18.5472V18.5513V18.5554V18.5595V18.5636V18.5677V18.5718V18.5759V18.58V18.5841V18.5882V18.5923V18.5964V18.6005V18.6046V18.6087V18.6127V18.6168V18.6209V18.625V18.629V18.6331V18.6372V18.6413V18.6453V18.6494V18.6534V18.6575V18.6616V18.6656V18.6697V18.6737V18.6778V18.6818V18.6859V18.6899V18.6939V18.698V18.702V18.706V18.7101V18.7141V18.7181V18.7221V18.7262V18.7302V18.7342V18.7382V18.7422V18.7462V18.7502V18.7542V18.7582V18.7622V18.7662V18.7702V18.7742V18.7782V18.7822V18.7861V18.7901V18.7941V18.7981V18.802V18.806V18.81V18.8139V18.8179V18.8218V18.8258V18.8297V18.8337V18.8376V18.8415V18.8455V18.8494V18.8533V18.8573V18.8612V18.8651V18.869V18.8729V18.8769V18.8808V18.8847V18.8886V18.8925V18.8964V18.9002V18.9041V18.908V18.9119V18.9158V18.9196V18.9235V18.9274V18.9312V18.9351V18.939V18.9428V18.9467V18.9505V18.9543V18.9582V18.962V18.9658V18.9697V18.9735V18.9773V18.9811V18.9849V18.9887V18.9925V18.9963V19.0001C3 20.1049 3.89561 21 5 21H19C20.1044 21 21 20.1049 21 19.0001V18.9963V18.9925V18.9887V18.9849V18.9811V18.9773V18.9735V18.9697V18.9658V18.962V18.9582V18.9543V18.9505V18.9467V18.9428V18.939V18.9351V18.9312V18.9274V18.9235V18.9196V18.9158V18.9119V18.908V18.9041V18.9002V18.8964V18.8925V18.8886V18.8847V18.8808V18.8769V18.8729V18.869V18.8651V18.8612V18.8573V18.8533V18.8494V18.8455V18.8415V18.8376V18.8337V18.8297V18.8258V18.8218V18.8179V18.8139V18.81V18.806V18.802V18.7981V18.7941V18.7901V18.7861V18.7822V18.7782V18.7742V18.7702V18.7662V18.7622V18.7582V18.7542V18.7502V18.7462V18.7422V18.7382V18.7342V18.7302V18.7262V18.7221V18.7181V18.7141V18.7101V18.706V18.702V18.698V18.6939V18.6899V18.6859V18.6818V18.6778V18.6737V18.6697V18.6656V18.6616V18.6575V18.6534V18.6494V18.6453V18.6413V18.6372V18.6331V18.629V18.625V18.6209V18.6168V18.6127V18.6087V18.6046V18.6005V18.5964V18.5923V18.5882V18.5841V18.58V18.5759V18.5718V18.5677V18.5636V18.5595V18.5554V18.5513V18.5472V18.5431V18.539V18.5349V18.5308V18.5267V18.5226V18.5184V18.5143V18.5102V18.5061V18.5019V18.4978V18.4937V18.4896V18.4854V18.4813V18.4772V18.473V18.4689V18.4648V18.4606V18.4565V18.4524V18.4482V18.4441V18.4399V18.4358V18.4316V18.4275V18.4234V18.4192V18.4151V18.4109V18.4068V18.4026V18.3985V18.3943V18.3901V18.386V18.3818V18.3777V18.3735V18.3694V18.3652V18.361V18.3569V18.3527V18.3486V18.3444V18.3402V18.3361V18.3319V18.3278V18.3236V18.3194V18.3153V18.3111V18.3069V18.3028V18.2986V18.2944V18.2903V18.2861V18.2819V18.2778V18.2736V18.2694V18.2652V18.2611V18.2569V18.2527V18.2486V18.2444V18.2402V18.2361V18.2319V18.2277V18.2235V18.2194V18.2152V18.211V18.2069V18.2027V18.1985V18.1943V18.1902V18.186V18.1818V18.1777V18.1735V18.1693V18.1652V18.161V18.1568V18.1527V18.1485V18.1443V18.1402V18.136V18.1318V18.1277V18.1235V18.1193V18.1152V18.111V18.1068V18.1027V18.0985V18.0943V18.0902V18.086V18.0819V18.0777V18.0735V18.0694V18.0652V18.0611V18.0569V18.0528V18.0486V18.0445V18.0403V18.0362V18.032V18.0279V18.0237V18.0196V18.0154V18.0113V18.0071V18.003V17.9988V17.9947V17.9906V17.9864V17.9823V17.9782V17.974V17.9699V17.9657V17.9616V17.9575V17.9534V17.9492V17.9451V17.941V17.9369V17.9327V17.9286V17.9245V17.9204V17.9163V17.9121V17.908V17.9039V17.8998V17.8957V17.8916V17.8875V17.8834V17.8793V17.8752V17.8711V17.867V17.8629V17.8588V17.8547V17.8506V17.8465V17.8424V17.8384V17.8343V17.8302V17.8261V17.822V17.818V17.8139V17.8098V17.8058V17.8017V17.7976V17.7936V17.7895V17.7855V17.7814V17.7773V17.7733V17.7692V17.7652V17.7612V17.7571V17.7531V17.749V17.745V17.741V17.7369V17.7329V17.7289V17.7249V17.7208V17.7168V17.7128V17.7088V17.7048V17.7008V17.6968V17.6928V17.6888V17.6848V17.6808V17.6768V17.6728V17.6688V17.6648V17.6608V17.6568V17.6529V17.6489V17.6449V17.641V17.637V17.633V17.6291V17.6251V17.6212V17.6172V17.6133V17.6093V17.6054V17.6014V17.5975V17.5936V17.5897V17.5857V17.5818V17.5779V17.574V17.5701V17.5662V17.5622V17.5583V17.5544V17.5506V17.5467V17.5428V17.5389V17.535V17.5311V17.5272V17.5234V17.5195V17.5156V17.5118V17.5079V17.5041V17.5002V17.4964V17.4925V17.4887V17.4849V17.481V17.4772V17.4734V17.4695V17.4657V17.4619V17.4581V17.4543V17.4505V17.4467V17.4429V17.4391V17.4353V17.4316V17.4278V17.424V17.4202V17.4165V17.4127V17.4089V17.4052V17.4014V17.3977V17.394V17.3902V17.3865V17.3828V17.379V17.3753V17.3716V17.3679V17.3642V17.3605V17.3568V17.3531V17.3494V17.3457V17.342V17.3383V17.3347V17.331V17.3273V17.3237V17.32V17.3164V17.3127V17.3091V17.3055V17.3018V17.2982V17.2946V17.291V17.2874V17.2838V17.2802V17.2766V17.273V17.2694V17.2658V17.2622V17.2586V17.2551V17.2515V17.248V17.2444V17.2409V17.2373V17.2338V17.2302V17.2267V17.2232V17.2197V17.2162V17.2127V17.2092V17.2057V17.2022V17.1987V17.1952V17.1917V17.1883V17.1848V17.1813V17.1779V17.1744V17.171V17.1676V17.1641V17.1607V17.1573V17.1539V17.1505V17.1471V17.1437V17.1403V17.1369V17.1335V17.1301V17.1268V17.1234V17.12V17.1167V17.1133V17.11V17.1067V17.1033V17.1V17.0967V17.0934V17.0901V17.0868V17.0835V17.0802V17.0769V17.0736V17.0704V17.0671V17.0638V17.0606V17.0573V17.0541V17.0509V17.0476V17.0444V17.0412V17.038V17.0348V17.0316V17.0284V17.0252V17.0221V17.0189V17.0157V17.0126V17.0094V17.0063V17.0031V17C21 16.5534 20.7865 16.197 20.6091 15.9693C20.4188 15.7251 20.1728 15.5046 19.9125 15.3094C19.3886 14.9164 18.6841 14.535 17.8846 14.2019C16.2836 13.5348 14.1529 13 12 13ZM4.94937 17.2261C4.94913 17.2261 4.95072 17.2232 4.95486 17.2171C4.95168 17.2231 4.94961 17.2261 4.94937 17.2261ZM5.2875 16.9094C5.14432 17.0168 5.05302 17.1025 5 17.1613V17.1641V17.1676V17.171V17.1744V17.1779V17.1813V17.1848V17.1883V17.1917V17.1952V17.1987V17.2022V17.2057V17.2092V17.2127V17.2162V17.2197V17.2232V17.2267V17.2302V17.2338V17.2373V17.2409V17.2444V17.248V17.2515V17.2551V17.2586V17.2622V17.2658V17.2694V17.273V17.2766V17.2802V17.2838V17.2874V17.291V17.2946V17.2982V17.3018V17.3055V17.3091V17.3127V17.3164V17.32V17.3237V17.3273V17.331V17.3347V17.3383V17.342V17.3457V17.3494V17.3531V17.3568V17.3605V17.3642V17.3679V17.3716V17.3753V17.379V17.3828V17.3865V17.3902V17.394V17.3977V17.4014V17.4052V17.4089V17.4127V17.4165V17.4202V17.424V17.4278V17.4316V17.4353V17.4391V17.4429V17.4467V17.4505V17.4543V17.4581V17.4619V17.4657V17.4695V17.4734V17.4772V17.481V17.4849V17.4887V17.4925V17.4964V17.5002V17.5041V17.5079V17.5118V17.5156V17.5195V17.5234V17.5272V17.5311V17.535V17.5389V17.5428V17.5467V17.5506V17.5544V17.5583V17.5622V17.5662V17.5701V17.574V17.5779V17.5818V17.5857V17.5897V17.5936V17.5975V17.6014V17.6054V17.6093V17.6133V17.6172V17.6212V17.6251V17.6291V17.633V17.637V17.641V17.6449V17.6489V17.6529V17.6568V17.6608V17.6648V17.6688V17.6728V17.6768V17.6808V17.6848V17.6888V17.6928V17.6968V17.7008V17.7048V17.7088V17.7128V17.7168V17.7208V17.7249V17.7289V17.7329V17.7369V17.741V17.745V17.749V17.7531V17.7571V17.7612V17.7652V17.7692V17.7733V17.7773V17.7814V17.7855V17.7895V17.7936V17.7976V17.8017V17.8058V17.8098V17.8139V17.818V17.822V17.8261V17.8302V17.8343V17.8384V17.8424V17.8465V17.8506V17.8547V17.8588V17.8629V17.867V17.8711V17.8752V17.8793V17.8834V17.8875V17.8916V17.8957V17.8998V17.9039V17.908V17.9121V17.9163V17.9204V17.9245V17.9286V17.9327V17.9369V17.941V17.9451V17.9492V17.9534V17.9575V17.9616V17.9657V17.9699V17.974V17.9782V17.9823V17.9864V17.9906V17.9947V17.9988V18.003V18.0071V18.0113V18.0154V18.0196V18.0237V18.0279V18.032V18.0362V18.0403V18.0445V18.0486V18.0528V18.0569V18.0611V18.0652V18.0694V18.0735V18.0777V18.0819V18.086V18.0902V18.0943V18.0985V18.1027V18.1068V18.111V18.1152V18.1193V18.1235V18.1277V18.1318V18.136V18.1402V18.1443V18.1485V18.1527V18.1568V18.161V18.1652V18.1693V18.1735V18.1777V18.1818V18.186V18.1902V18.1943V18.1985V18.2027V18.2069V18.211V18.2152V18.2194V18.2235V18.2277V18.2319V18.2361V18.2402V18.2444V18.2486V18.2527V18.2569V18.2611V18.2652V18.2694V18.2736V18.2778V18.2819V18.2861V18.2903V18.2944V18.2986V18.3028V18.3069V18.3111V18.3153V18.3194V18.3236V18.3278V18.3319V18.3361V18.3402V18.3444V18.3486V18.3527V18.3569V18.361V18.3652V18.3694V18.3735V18.3777V18.3818V18.386V18.3901V18.3943V18.3985V18.4026V18.4068V18.4109V18.4151V18.4192V18.4234V18.4275V18.4316V18.4358V18.4399V18.4441V18.4482V18.4524V18.4565V18.4606V18.4648V18.4689V18.473V18.4772V18.4813V18.4854V18.4896V18.4937V18.4978V18.5019V18.5061V18.5102V18.5143V18.5184V18.5226V18.5267V18.5308V18.5349V18.539V18.5431V18.5472V18.5513V18.5554V18.5595V18.5636V18.5677V18.5718V18.5759V18.58V18.5841V18.5882V18.5923V18.5964V18.6005V18.6046V18.6087V18.6127V18.6168V18.6209V18.625V18.629V18.6331V18.6372V18.6413V18.6453V18.6494V18.6534V18.6575V18.6616V18.6656V18.6697V18.6737V18.6778V18.6818V18.6859V18.6899V18.6939V18.698V18.702V18.706V18.7101V18.7141V18.7181V18.7221V18.7262V18.7302V18.7342V18.7382V18.7422V18.7462V18.7502V18.7542V18.7582V18.7622V18.7662V18.7702V18.7742V18.7782V18.7822V18.7861V18.7901V18.7941V18.7981V18.802V18.806V18.81V18.8139V18.8179V18.8218V18.8258V18.8297V18.8337V18.8376V18.8415V18.8455V18.8494V18.8533V18.8573V18.8612V18.8651V18.869V18.8729V18.8769V18.8808V18.8847V18.8886V18.8925V18.8964V18.9002V18.9041V18.908V18.9119V18.9158V18.9196V18.9235V18.9274V18.9312V18.9351V18.939V18.9428V18.9467V18.9505V18.9543V18.9582V18.962V18.9658V18.9697V18.9735V18.9773V18.9811V18.9849V18.9887V18.9925V18.9963V19H19V18.9963V18.9925V18.9887V18.9849V18.9811V18.9773V18.9735V18.9697V18.9658V18.962V18.9582V18.9543V18.9505V18.9467V18.9428V18.939V18.9351V18.9312V18.9274V18.9235V18.9196V18.9158V18.9119V18.908V18.9041V18.9002V18.8964V18.8925V18.8886V18.8847V18.8808V18.8769V18.8729V18.869V18.8651V18.8612V18.8573V18.8533V18.8494V18.8455V18.8415V18.8376V18.8337V18.8297V18.8258V18.8218V18.8179V18.8139V18.81V18.806V18.802V18.7981V18.7941V18.7901V18.7861V18.7822V18.7782V18.7742V18.7702V18.7662V18.7622V18.7582V18.7542V18.7502V18.7462V18.7422V18.7382V18.7342V18.7302V18.7262V18.7221V18.7181V18.7141V18.7101V18.706V18.702V18.698V18.6939V18.6899V18.6859V18.6818V18.6778V18.6737V18.6697V18.6656V18.6616V18.6575V18.6534V18.6494V18.6453V18.6413V18.6372V18.6331V18.629V18.625V18.6209V18.6168V18.6127V18.6087V18.6046V18.6005V18.5964V18.5923V18.5882V18.5841V18.58V18.5759V18.5718V18.5677V18.5636V18.5595V18.5554V18.5513V18.5472V18.5431V18.539V18.5349V18.5308V18.5267V18.5226V18.5184V18.5143V18.5102V18.5061V18.5019V18.4978V18.4937V18.4896V18.4854V18.4813V18.4772V18.473V18.4689V18.4648V18.4606V18.4565V18.4524V18.4482V18.4441V18.4399V18.4358V18.4316V18.4275V18.4234V18.4192V18.4151V18.4109V18.4068V18.4026V18.3985V18.3943V18.3901V18.386V18.3818V18.3777V18.3735V18.3694V18.3652V18.361V18.3569V18.3527V18.3486V18.3444V18.3402V18.3361V18.3319V18.3278V18.3236V18.3194V18.3153V18.3111V18.3069V18.3028V18.2986V18.2944V18.2903V18.2861V18.2819V18.2778V18.2736V18.2694V18.2652V18.2611V18.2569V18.2527V18.2486V18.2444V18.2402V18.2361V18.2319V18.2277V18.2235V18.2194V18.2152V18.211V18.2069V18.2027V18.1985V18.1943V18.1902V18.186V18.1818V18.1777V18.1735V18.1693V18.1652V18.161V18.1568V18.1527V18.1485V18.1443V18.1402V18.136V18.1318V18.1277V18.1235V18.1193V18.1152V18.111V18.1068V18.1027V18.0985V18.0943V18.0902V18.086V18.0819V18.0777V18.0735V18.0694V18.0652V18.0611V18.0569V18.0528V18.0486V18.0445V18.0403V18.0362V18.032V18.0279V18.0237V18.0196V18.0154V18.0113V18.0071V18.003V17.9988V17.9947V17.9906V17.9864V17.9823V17.9782V17.974V17.9699V17.9657V17.9616V17.9575V17.9534V17.9492V17.9451V17.941V17.9369V17.9327V17.9286V17.9245V17.9204V17.9163V17.9121V17.908V17.9039V17.8998V17.8957V17.8916V17.8875V17.8834V17.8793V17.8752V17.8711V17.867V17.8629V17.8588V17.8547V17.8506V17.8465V17.8424V17.8384V17.8343V17.8302V17.8261V17.822V17.818V17.8139V17.8098V17.8058V17.8017V17.7976V17.7936V17.7895V17.7855V17.7814V17.7773V17.7733V17.7692V17.7652V17.7612V17.7571V17.7531V17.749V17.745V17.741V17.7369V17.7329V17.7289V17.7249V17.7208V17.7168V17.7128V17.7088V17.7048V17.7008V17.6968V17.6928V17.6888V17.6848V17.6808V17.6768V17.6728V17.6688V17.6648V17.6608V17.6568V17.6529V17.6489V17.6449V17.641V17.637V17.633V17.6291V17.6251V17.6212V17.6172V17.6133V17.6093V17.6054V17.6014V17.5975V17.5936V17.5897V17.5857V17.5818V17.5779V17.574V17.5701V17.5662V17.5622V17.5583V17.5544V17.5506V17.5467V17.5428V17.5389V17.535V17.5311V17.5272V17.5234V17.5195V17.5156V17.5118V17.5079V17.5041V17.5002V17.4964V17.4925V17.4887V17.4849V17.481V17.4772V17.4734V17.4695V17.4657V17.4619V17.4581V17.4543V17.4505V17.4467V17.4429V17.4391V17.4353V17.4316V17.4278V17.424V17.4202V17.4165V17.4127V17.4089V17.4052V17.4014V17.3977V17.394V17.3902V17.3865V17.3828V17.379V17.3753V17.3716V17.3679V17.3642V17.3605V17.3568V17.3531V17.3494V17.3457V17.342V17.3383V17.3347V17.331V17.3273V17.3237V17.32V17.3164V17.3127V17.3091V17.3055V17.3018V17.2982V17.2946V17.291V17.2874V17.2838V17.2802V17.2766V17.273V17.2694V17.2658V17.2622V17.2586V17.2551V17.2515V17.248V17.2444V17.2409V17.2373V17.2338V17.2302V17.2267V17.2232V17.2197V17.2162V17.2127V17.2092V17.2057V17.2022V17.1987V17.1952V17.1917V17.1883V17.1848V17.1813V17.1779V17.1744V17.171V17.1676V17.1641V17.1613C18.947 17.1025 18.8557 17.0168 18.7125 16.9094C18.3614 16.6461 17.8159 16.34 17.1154 16.0481C15.7164 15.4652 13.8471 15 12 15C10.1529 15 8.28359 15.4652 6.88462 16.0481C6.18409 16.34 5.63859 16.6461 5.2875 16.9094ZM19.0506 17.2261C19.0504 17.2261 19.0483 17.2231 19.0451 17.2171C19.0493 17.2232 19.0509 17.2261 19.0506 17.2261Z" fill="#1B1C1D"/>
</svg>
